<mxfile host="app.diagrams.net" agent="Mozilla/5.0 (Windows NT 10.0; Win64; x64) AppleWebKit/537.36 (KHTML, like Gecko) Chrome/135.0.0.0 Safari/537.36 Edg/135.0.0.0" version="26.2.14">
  <diagram name="PÃ¡gina-1" id="au2C3BYJF6x3YRwZRXZ6">
    <mxGraphModel dx="2978" dy="992" grid="1" gridSize="10" guides="1" tooltips="1" connect="1" arrows="1" fold="1" page="1" pageScale="1" pageWidth="827" pageHeight="1169" math="0" shadow="0">
      <root>
        <mxCell id="0" />
        <mxCell id="1" parent="0" />
        <mxCell id="MonN4UWlxKLjkT3AbChz-1" value="AWS Cloud" style="sketch=0;outlineConnect=0;gradientColor=none;html=1;whiteSpace=wrap;fontSize=12;fontStyle=0;shape=mxgraph.aws4.group;grIcon=mxgraph.aws4.group_aws_cloud;strokeColor=#AAB7B8;fillColor=none;verticalAlign=top;align=left;spacingLeft=30;fontColor=#AAB7B8;dashed=0;" vertex="1" parent="1">
          <mxGeometry x="358.5" y="180" width="1140" height="340" as="geometry" />
        </mxCell>
        <mxCell id="MonN4UWlxKLjkT3AbChz-26" value="" style="rounded=1;whiteSpace=wrap;html=1;" vertex="1" parent="1">
          <mxGeometry x="730" y="330" width="170" height="120" as="geometry" />
        </mxCell>
        <mxCell id="MonN4UWlxKLjkT3AbChz-14" value="" style="whiteSpace=wrap;html=1;shape=mxgraph.basic.cloud_rect" vertex="1" parent="1">
          <mxGeometry x="870" y="40" width="260" height="110" as="geometry" />
        </mxCell>
        <mxCell id="MonN4UWlxKLjkT3AbChz-2" value="WAF" style="sketch=0;points=[[0,0,0],[0.25,0,0],[0.5,0,0],[0.75,0,0],[1,0,0],[0,1,0],[0.25,1,0],[0.5,1,0],[0.75,1,0],[1,1,0],[0,0.25,0],[0,0.5,0],[0,0.75,0],[1,0.25,0],[1,0.5,0],[1,0.75,0]];outlineConnect=0;fontColor=#232F3E;fillColor=#DD344C;strokeColor=#ffffff;dashed=0;verticalLabelPosition=bottom;verticalAlign=top;align=center;html=1;fontSize=12;fontStyle=0;aspect=fixed;shape=mxgraph.aws4.resourceIcon;resIcon=mxgraph.aws4.waf;" vertex="1" parent="1">
          <mxGeometry x="420" y="360" width="78" height="78" as="geometry" />
        </mxCell>
        <mxCell id="MonN4UWlxKLjkT3AbChz-3" value="Route 53" style="sketch=0;points=[[0,0,0],[0.25,0,0],[0.5,0,0],[0.75,0,0],[1,0,0],[0,1,0],[0.25,1,0],[0.5,1,0],[0.75,1,0],[1,1,0],[0,0.25,0],[0,0.5,0],[0,0.75,0],[1,0.25,0],[1,0.5,0],[1,0.75,0]];outlineConnect=0;fontColor=#232F3E;fillColor=#8C4FFF;strokeColor=#ffffff;dashed=0;verticalLabelPosition=bottom;verticalAlign=top;align=center;html=1;fontSize=12;fontStyle=0;aspect=fixed;shape=mxgraph.aws4.resourceIcon;resIcon=mxgraph.aws4.route_53;" vertex="1" parent="1">
          <mxGeometry x="530" y="220" width="78" height="78" as="geometry" />
        </mxCell>
        <mxCell id="MonN4UWlxKLjkT3AbChz-4" value="Amplify" style="sketch=0;points=[[0,0,0],[0.25,0,0],[0.5,0,0],[0.75,0,0],[1,0,0],[0,1,0],[0.25,1,0],[0.5,1,0],[0.75,1,0],[1,1,0],[0,0.25,0],[0,0.5,0],[0,0.75,0],[1,0.25,0],[1,0.5,0],[1,0.75,0]];outlineConnect=0;fontColor=#232F3E;fillColor=#DD344C;strokeColor=#ffffff;dashed=0;verticalLabelPosition=bottom;verticalAlign=top;align=center;html=1;fontSize=12;fontStyle=0;aspect=fixed;shape=mxgraph.aws4.resourceIcon;resIcon=mxgraph.aws4.amplify;" vertex="1" parent="1">
          <mxGeometry x="660" y="360" width="78" height="78" as="geometry" />
        </mxCell>
        <mxCell id="MonN4UWlxKLjkT3AbChz-9" value="" style="image;html=1;image=img/lib/atlassian/Bitbucket_Logo.svg;" vertex="1" parent="1">
          <mxGeometry x="900" y="78" width="57" height="50" as="geometry" />
        </mxCell>
        <mxCell id="MonN4UWlxKLjkT3AbChz-10" value="" style="shape=image;html=1;verticalAlign=top;verticalLabelPosition=bottom;labelBackgroundColor=#ffffff;imageAspect=0;aspect=fixed;image=https://cdn4.iconfinder.com/data/icons/ionicons/512/icon-social-github-128.png" vertex="1" parent="1">
          <mxGeometry x="970" y="74" width="58" height="58" as="geometry" />
        </mxCell>
        <mxCell id="MonN4UWlxKLjkT3AbChz-11" value="External Source code" style="text;html=1;align=center;verticalAlign=middle;whiteSpace=wrap;rounded=0;" vertex="1" parent="1">
          <mxGeometry x="940" y="44" width="120" height="30" as="geometry" />
        </mxCell>
        <mxCell id="MonN4UWlxKLjkT3AbChz-16" value="Developer" style="sketch=0;pointerEvents=1;shadow=0;dashed=0;html=1;strokeColor=none;fillColor=#505050;labelPosition=center;verticalLabelPosition=bottom;verticalAlign=top;outlineConnect=0;align=center;shape=mxgraph.office.devices.laptop;" vertex="1" parent="1">
          <mxGeometry x="730" y="60" width="58" height="34" as="geometry" />
        </mxCell>
        <mxCell id="MonN4UWlxKLjkT3AbChz-17" style="edgeStyle=orthogonalEdgeStyle;rounded=0;orthogonalLoop=1;jettySize=auto;html=1;exitX=1;exitY=0.75;exitDx=0;exitDy=0;exitPerimeter=0;entryX=0.25;entryY=0;entryDx=0;entryDy=0;entryPerimeter=0;" edge="1" parent="1" source="MonN4UWlxKLjkT3AbChz-3" target="MonN4UWlxKLjkT3AbChz-4">
          <mxGeometry relative="1" as="geometry" />
        </mxCell>
        <mxCell id="MonN4UWlxKLjkT3AbChz-18" style="edgeStyle=orthogonalEdgeStyle;rounded=0;orthogonalLoop=1;jettySize=auto;html=1;entryX=0.5;entryY=0;entryDx=0;entryDy=0;entryPerimeter=0;" edge="1" parent="1" source="MonN4UWlxKLjkT3AbChz-16" target="MonN4UWlxKLjkT3AbChz-4">
          <mxGeometry relative="1" as="geometry">
            <Array as="points">
              <mxPoint x="699" y="77" />
            </Array>
          </mxGeometry>
        </mxCell>
        <mxCell id="MonN4UWlxKLjkT3AbChz-19" value="" style="endArrow=classic;startArrow=classic;html=1;rounded=0;exitX=-0.002;exitY=0.336;exitDx=0;exitDy=0;exitPerimeter=0;" edge="1" parent="1" source="MonN4UWlxKLjkT3AbChz-14" target="MonN4UWlxKLjkT3AbChz-16">
          <mxGeometry width="50" height="50" relative="1" as="geometry">
            <mxPoint x="1070" y="230" as="sourcePoint" />
            <mxPoint x="1120" y="180" as="targetPoint" />
          </mxGeometry>
        </mxCell>
        <mxCell id="MonN4UWlxKLjkT3AbChz-20" value="" style="shape=image;html=1;verticalAlign=top;verticalLabelPosition=bottom;labelBackgroundColor=#ffffff;imageAspect=0;aspect=fixed;image=https://cdn4.iconfinder.com/data/icons/socialcones/508/Gitlab-128.png" vertex="1" parent="1">
          <mxGeometry x="1040" y="69" width="68" height="68" as="geometry" />
        </mxCell>
        <mxCell id="MonN4UWlxKLjkT3AbChz-21" value="" style="endArrow=classic;startArrow=classic;html=1;rounded=0;entryX=1;entryY=0.5;entryDx=0;entryDy=0;entryPerimeter=0;" edge="1" parent="1" source="MonN4UWlxKLjkT3AbChz-4" target="MonN4UWlxKLjkT3AbChz-2">
          <mxGeometry width="50" height="50" relative="1" as="geometry">
            <mxPoint x="879" y="87" as="sourcePoint" />
            <mxPoint x="798" y="87" as="targetPoint" />
          </mxGeometry>
        </mxCell>
        <mxCell id="MonN4UWlxKLjkT3AbChz-23" value="Internet" style="outlineConnect=0;dashed=0;verticalLabelPosition=bottom;verticalAlign=top;align=center;html=1;shape=mxgraph.aws3.internet_2;fillColor=#D2D3D3;gradientColor=none;" vertex="1" parent="1">
          <mxGeometry x="130" y="372" width="79.5" height="54" as="geometry" />
        </mxCell>
        <mxCell id="MonN4UWlxKLjkT3AbChz-24" value="" style="endArrow=classic;startArrow=classic;html=1;rounded=0;exitX=0;exitY=0.5;exitDx=0;exitDy=0;exitPerimeter=0;" edge="1" parent="1" source="MonN4UWlxKLjkT3AbChz-2" target="MonN4UWlxKLjkT3AbChz-23">
          <mxGeometry width="50" height="50" relative="1" as="geometry">
            <mxPoint x="410" y="400" as="sourcePoint" />
            <mxPoint x="502" y="409" as="targetPoint" />
          </mxGeometry>
        </mxCell>
        <mxCell id="MonN4UWlxKLjkT3AbChz-29" value="Next App" style="shape=image;verticalLabelPosition=bottom;labelBackgroundColor=default;verticalAlign=top;aspect=fixed;imageAspect=0;image=data:image/png,iVBORw0KGgoAAAANSUhEUgAAAeIAAAHiCAYAAAA06c+jAAAAAXNSR0IArs4c6QAAAARnQU1BAACxjwv8YQUAAAAJcEhZcwAAFiUAABYlAUlSJPAAAG2sSURBVHhe7d3502TVfd/xKyTZEgiEQAix7zsM68CwgxAgqSTLduyqlJJKqvJT/oDk9/wf+SGpcpVdjlKJLbSLRSxCDPu+7zOAGLRgFkmW4iR6HeY76tmYZ+m+93b351116H66n3m66b7nfM53PR/5f3+gCyGEEMIg7Lf9NoQQQggDECEOIYQQBiSu6RDWgGnzL//yL93/+T//p/v973/f/fM///NO47e//W33/vvvt/Huu++24fHf/e53O8ZvfvOb9rjfcf/Xv/5198477+x4zNgVf8PvufW63sOe+MhHPtJ9+tOfbsN9fPKTn+w+9alPdR//+Me7j33sY90nPvGJ9rPf+cxnPtNuPfanf/qn3Uc/+tH2OwcccEAbfs/t/vvv34bf8bzb+nm//fZrI4SwMt5574M5HiEOYTumwv/9v/93xyihNer+pPgS00lhnBTZEtoSZL/jMf9uUrw97vfcLzEuYTZ2xb/zN90a3ueeIL7E0yiILDEmoISWeJY4H3TQQe32T/7kT5pQlxDXv6nhZ6PE3N8g0J6rf+vxPQ1/0yjB9h5rkxDCMhIhDmEXiBpBNIgdISxrtizU+rnGP/3TP3W//OUvu/fee28nAXdbIl7D45Ni72di6raGnyf/za5M/n3jw6YvUTSKEsMSwRJbv0NEd33ebf1OPbfr7xBllnQJ+YEHHtjuuzUmH5u0pg1/K2IclpkIcVgaXOK7CmCNEkiDxUpQJ4X3V7/6VRvlMn777bd3PFYi/POf/7w9t4wQ1BJitwcffHB3yCGHNFe3+x6rn0uYa0xa1jVK/HfdEISwiESIw9JQbtyycgkswSWkJaj181tvvdX94he/2OnfGOVudr8s5knL2XPLCMEsC5dV7bbc10b9XM8bRJs4E+oScD+7rZh0jfo3sZrDIhIhDgvFpMU7afm6rTgsq5VlS3xZsm+++Wb3+uuvt9uybF977bX2c5gdBPdzn/tc99nPfraNww8/vDvyyCPbLcu5rGm3ZT2XhVwWc92PQId5JkIcFgKXr8EiJbQltuU2Nli4BquXINeYdEOzbAm2f+vnMDtYx6zdihm7z23tlvVcSWFuibNRbu5yfVcc2t+KIId5JUIc5pK6XOu2LF/iyZL92c9+1qxclu3LL7/cxtatW7stW7Y08eVu9m/C+CGuJ554YnfCCSd0Rx99dHfUUUd1xx57bHfcccftsKAJcsWU699M3oYwZiLEYa6obOYq72G5SpwS0yW+bsvCnXRBVwzYz0SYaOeSnw+IKfd0WcBGuawr8ctzBPmwww5rFrPh9zxX8eVYzGGsRIjDXFHiKo67bdu2ZuW+8sor3TPPPNM98sgj3auvvrrDTV2jYsWTj4X5okS0bne9L9Z81llndaeddlqzlI855phmLR9xxBE74st+vyzmEMZEhDiMDqJZmchEl/iWNcvt/MYbb+z4mTUs7ssaJspiwWH5YBmXm/rQQw/dkY1tEGmjYstlMYs9iy1HnMPQRIjD6FDTS2i5k8V0DZYuy/ell17qXnjhheaarrhwNb2QqOXnsHywdqtxCWGthiNc0izk448/vt1WbNmQqU2Q/U4IQxIhDoNBSAkoy1dcl4VbJUVivVzPXNB136hELHHeEPYFgS6L2BBDZjVP/syCFm8myjK2Wcol5CH0QYQ4DEY1xuBaluHM2hXrff7551u2M8H1O0TXbQ1u61yuYSWIH1frzl0HEZaBLSP79NNPb7d+9ng1HwmhDyLEYea4tAzu5KrRrfguC5jVy9IV4yXG3NCsYM+FMCtYwNzTSqKIsASvyryuOHPVKbOSjUoQC2GaRIjDzKlYbtX1vvjii83qFfMV/yXI1SJSSRKxZvWyfkOYFSxlVi+BrcYiLGECLaZMnE866aQ2Pv/5zzeRrj7YEeMwTSLEYaq4jMR9uZOr1lfilcHiNSRbEWIiTJjTwSqMCcJcCV0nn3xyE2Iua1nZsq5ZyRVL5uIWS44wh/UQIQ5ThQgTYFZuZTo//fTTbXis3NIGATb8mxDGAqu32m0ahJcLm7uaMJ9yyilNpLm0CTNB9m9CWCsR4rAuuJwrmYp7Wc2vmK9EK5bvc8891z366KOt2YbfIbq51MK8UR28JHVpHEKQtdzksibQnufmNqqEKoSVEiEO64JFK+tZslVZwAS4Yr8GYTaItnhxCPMGFzSBVeZEeMWRDVYx17WYsmQvwlytN0NYKRHisCpYtEaVEhHhivs+9dRTbXBDE+QQFh2x47PPPrs744wzmrVc8WQ1yqzjiiHHQg4fRoQ4rAqWrcYaLF4nGlXCFVc0Ua4hOSuERYflW+VOhszqSvSSde22Wm0moSvsjQhx2CsuCa5kt2UJq/OV8fzQQw91999/f7OE9X4WGw5h2RFHFjuW0HXJJZd0F1100Y6jG6tbV5U/RZhDESEOu1HCq5ZXUw0WLnezrlcabWhBSXxZwu4T4dT8hvBBLLniyMSXCNcpUARaLNlzLGQx5whyQIQ47AYruPo/a77B6v32t7/dhqYbcLnUJZNLJ4Q/UsLqlgVczUCuvPLK7qqrrmpxZC5rJVJpDhIQIQ47RJX4snDFgMV/JVxVN6wnn3yye+KJJ5qlHEJYGURWHNkQM664sVOgymVdp0CpRw7LSYQ4NBFWWsQNre6X6N5zzz3dgw8+2ITZqCzpXCYhrA5Wr8EVbXBTE+Jzzjmn27hxY8u2Js5c2mE5iRAvMTpgyW4W962D9eu8XwlZ7vsdI4QwHVi/DpQgxtXP2q06ZGVPnqsWmmE5iBAvMZpwEFsW8AMPPNCSsbiilSiJBUvWShOOEKaLuDHLWGKXQybEkHXqUot87rnntluPcVmH5SBCvEQQV4PQViesKkciwtUNK4cwhNAfelkTXhaysieiLLuau5oYq1Mut3ZYTCLES4QkLEMN8L333ttc0CxgMWAZ0kRa32hWcAihH9QXs4y5ormklTeddtppzTK+4IILuvPPP7/VJxvJsF5MIsQLiq+zWlGKA7N0ZUIbDmCQiFV1wFzQIYRxQJBZw+qON2zY0IbsakN8WQY26zilT4tDhHhBYdWycomwsiNx4OoDzSomwJKwCHUs4BDGgxgyy5gFLJNa8har2Dj11FOb+5oYizET4zD/RIgXBF+fwbXMxazbFYtXJjQL2FGEYsFGumCFMD8QWyJ83nnntQMmHMOoBEr8mFhza+c85PkmQrwgsGqJsAP3JWGJ/3I/P/zwwzsdxGAkCzqE+YH7mega2mUaxFiGtbInosxCDvNLhHjOIapiwTKdNeSQfMUF/dhjj3U//elP28EMIYTFoJK2iPCll17a4sfc1bKuxZYdvZjY8fwRIZ5zxHkrEYv1S4SVIRlEWaOOEMJiUPXHSppYxpqB1FnIhraZdQ5ymB8ixHNGfU2VEc3lXHHgm2++uZUmeYyLOoSw2LCElTqJITtUQgxZgpfaZElfiR3PBxHiOYMAGyxefaElX7l1SpLBAq6uWCGExYabWt1xNQRhIRNj1rHYsVOf4qoePxHiOaG+HickEdr77ruvu+2229rt448/3kqSQgjLDXf19ddf311zzTUtjnzmmWc2y9iIGI+XCPEc4KsRBzbUAasL1pKSJcwtrV2lmuEQwnIje1qdsVGxY1ayoczJiCCPjwjxHOCrqa5Y3//+97ubbrqpe+ONN5p1rGRJ5nS+vhACkRUX3n///Zv4yqi+7rrr2jj44INbZ640ARkfEeIR4qtQFyzOS3CrJMmo5hySsfxOvrYQwq7IrhY7dqwiy9iQ1MVC9pia5GRWj4cI8Qhh4RJhzTfEgNUCa87hqEIds8SIYwWHEPZGWcaGciYu6WuvvbZZxuecc06LHUv0CuMgQjwiZENzN4sFVzZ09YiurOj0hQ4hrAUCLIHLrcxqB0tI7iLIkrnish6OCPGIIMJqgLWnFAu+/fbb29nBHmMFG/maQghrgeBK5nLeMVf1xRdf3F1++eWt7ImbOjXHwxEhHhgfO4HlhlYDzBKWFX3XXXc1VzRxNkIIYRqoLdaBi1XsvGOi7MhFsWMu7MSO+ydCPCA+crFe5UfPPvtsS8LSH9otS1jvaM/HHR1CmBbEVl9qGdQyqZ3q9KUvfamJMjH2eOiXCPEAEFdD5nO5omVDa0/JCmYVhxBCH8ikvuGGG7pLLrmklTtxVXNjK4EK/RAhHgA9omVFs4JlRLOAJWS98sorzRJOn+gQQl+wgI866qgmyJs2beouvPDCFkcmyKEfIsQ9Un2iWcHc0azfO+64ox1Z6AxhrugQQhgC/aodrSiJi5vamccsY0M5VLKqZ0eEuEdYugYBvvvuu3eUJekT7fEc1BBCGIoDDjigibGyJiVONQiyBiFG2mPOhghxD2hDabz22mvt1CTHFX7nO99pVrAD/T0XQghjgCDrVa3ph8Mjrrrqqna0osQuJU6xjKdPhHjGSMrSplJpki5Zmzdvbgc2SNBSslS9okMIYQywfA855JDusMMO29EWc+PGjW0451gSV8R4ukSIZ4SPs/pFqwvWIet73/te993vfjcnJYUQRo9uW6xgovyXf/mXbUjq0qeaWEeMp0eEeAawcDXhcFqSGLCyJEPLSpnSsqZDCGHMiAerNza4qasblzInsWTZ1gQ5rJ8I8ZTxMRJi/aJlROuQxR1t5LSkEMK8QZBrsIq/8Y1vNGHWnSu1xtOhhPij/+UPtHthTRBfpUlKkGRD33vvva1LljphCVqEOSIcQphHrF0Gd7XcFqfAWe+gJWbaYq6Pf/7dBwm7sYjXiYtSPHjr1q3dbbfd1ixhsWGJWRKy6qINIYR5heBqkSlxy5GKXNV6VutfHdZOLOJ1whImtGqBNea45557mjXsvmxplnCyokMIi0AloMKtfJdyW4sXO/s4rJ5YxOuECDs9iTva0YUadbz00kvd66+/3i7S1AiHEBYNVrH4sASuK664Ykc3ruOPP377b4TVEIt4jRDZX//6160ph4xo8WDWMEHWL1qJUizhEMIiItTGAGEhMzash2w5Q1lTJXGxlMO+iUW8RrSk/OUvf9nc0GqDifFbb73VXNGJCYcQlgGWsV7UxxxzTGuH6cAIFvKGDRuaIKfWeGXEIl4lRLZqhInvT37yk5aYpUZYJqGdYSzhEMIywODgGWQdWxetj+qOCTTqNpbxh1MWcYR4hXA5Oz2JG/of/uEf2q14sAsxToUQwjJi7bMG6p1PkIkzEdYmkwgrewp7J0K8Qli6LjRnBitLYgXfeuutrXOW7MGIcAhhWRErJsBlGbtlGdcRiu4jlvGeiRCvACIr9qtEiQD/4z/+Y2vU4UxhAh1CCOGDtdKaWJaxXBolTeqMK2YcMd6dJGt9CD4SMRAXlhjw888/3xKzCLFErRBCCLtDfCVwnXjiid0NN9zQ3Xjjjc1Nfeihh7ajFMPOJFnrQ5B0pRTJOcL6Rn/7299ujTpYwsmKDiGEvcNdLVYsgYvhouGHwyLcxiremVjEe8BHQYTFOVjC2lRKzGIJc7eEEELYN5K0jjzyyDYcGPFXf/VXzTIWM/ZcBPkDYhHvAdYuS1hi1u23397OEdaoQ51wSpNCCGHlMGyqLaaYsfX1oIMOan2rCXHEOBbxbvgYuFNeeOGFdpj/N7/5ze5//a//tf3ZEEIIa+Goo45qRyd++ctf7v7Vv/pX3XHHHdcs48SMYxHvhF2bGmEiLCZ8880377CEQwghrB2Wr3gxl7QEWJaxVpgSu5bdMi6LOH3I/gAhlohFfNUIiwmLD4cQQlgfOg9qfvTwww93P/zhD7vNmze3klCinJDfByy1RUyAHXbt1CR1wuLC3NKOMcwFEkII06EioBUztr4aXNQHHHBAe2wZLeNYxH/ARSE56+mnn+5uueWWViusY1YIIYTpwjLesmVL69X/ox/9qB0dyxNJkJc9VWkpLWICrHc00XWMIWuY28RFkjrhEEKYPsRWjTHhtQb7uRK2ZFJri7lsLLVFrCZYItbjjz/erGAH+ztfOIQQwmzRBlOzpEceeaTFjOXl+HmZWSohZu1q1kF0WcKOMnSQg4vAxRFCCGG2WIeVilaC7IMPPtg6F2qi9Ktf/Wr7by0XSyXE3CEKy3353/rWt1qcQmJWCCGEfmEUWX+txwwjQ3b1MrIUQiwuQYR/9rOfdY8++mj3wAMPNLeIGLFYcQghhH5RW1ylTSxiZ7wTZR5Kjy8TSyHEZQmLCbOEuaRzilIIIQwPN7UT7u67774mxm6XLWa80EIsK88gurpmsYKlzNt1LduOK4QQxghDSYMPMWKlTcSYt5LxJLF2GUqbFl6IuaV9wTKj77333uaetgPzeAghhHFAdK3VykklcOnvoM/DMjRXWlghJsIyoX2RLGBds8Qh9JT2hS/DlxtCCPMCy1gvB55LfR2qt4OkLvHkRbaMF1aIpcgTYH2juTocbfj222+nYUcIIYwYPajl81i7ZVKLHzOgFnntXjghtmuqOjV9o7/zne90999/fwv+iznEJR1CCOOFEDt05wc/+EEzorio1RwvslW8cELMvSHOwBUtzuA+93QEOIQQ5gfhQ8aUc+FZxvJ7hBsXcS1fSCF+9tlnmxCrF44QhxDC/MH6LSFmGS9you3CCDEBVhjui5MCX7VoOdkjhBDmE2s34VXO5IQ8a7ujaxdtXV8oISa8gvy+rIoLR4RDCGG+efnll1tLYuFGSbeLVvUy90IsMUtzjq1btzYr+Mc//nHLspPyngzpEEKYf1jBKl94PImx8OMiNWWaeyGWYWeHZMckoG/X5H4IIYTFQJKWzGkZ1Loj6glBnBeFuRVicQPuaK3RuKL1j5by7pxhAf0QQgiLQa33TmvS6INVbL2XF7QI6/1cCzH3s84rMqQdMJ3D/UMIYXHR2MMZ8ipiykW9CJbx3Aqx5hwOcuCiMMSFuahDCCEsJtoTE2NZ1BJyeUMl5XJda/gxr8ytEHNBO8RBXJhVzD0xz19ECCGElVHrvwMi9Ipwwh6RnlfmToh92D50GXRiBcqVxIklbeUghxBCWHzee++9pgHOE6AB4sUsZSHLeSxZnTsh/tWvftUy57ijffjKlpKcFUIIywejjGV82223tWoZCV3zWLY6N0I8mTXnmCzjpZdeau0r59klEUIIYW3IFVJbTIy5qOe1amZuhFgwXq9RH3od6JDkrBBCWF7kBRFjZUy8pJo6MdbmjdELMX+/QXSVJ0ld37x5c4sN+AJCCCEsJ9zQ4sWMNNpQrY0JNC/qvDB6IfZBcz0rVbr11lubS9oHH0IIIUBPCSVNPKW8puLFjLd5SdyaCyH2IasT1kf60UcfXageoyGEENYHjSC+6op5S+UPSeyNEE8BH6KsaIF4Hy7fPxGeJ5dDCCGEfiDIvKbf+ta3WsyYXkjyHbsgj16I+ftLiMUBfLA5VSmEEMKuEGJe05tuummH9zRCvEY05qjkrEpN52oQK54XV0MIIYR+oQ90Qv9p4UydFzX+GLvxNkoh5nqufqK6phBi/n/ds0IIIYQ9QYjpRyVv3Xnnne127O2PRyfEtaPhiv7e977XhNjuZh7cCyGEEIalxFhtsTbITmiSa8TLOlbLeFRC7APklrabkf32zW9+swXcc5hDCCGElUJH3nzzzaYfWiKzinVhjBCvAIIrM9oHp26Yb3+easFCCCEMD81g0NEPWqLjlphxVd2MTVNGJcQ+OP1CBdi5EkIIIYT1wKDTg4J1TJjHeFLfKIS4gutcB2LDdi/8+yGEEMJ6oCu8rGLFkn79PLbE31EIMZe046yUK0nOeuCBB+aycXcIIYRxIdFXwi/LWLMPruqxndA0uBCXL1/jDucL8+NXn9AQQghhPTD0CK9wpyRgOsPwG5OLelAhrixpu5U6VSmWcAghhGkji5q3VUkT76te1GNxUQ8qxBUbdpizDlo+oG3btm1/NoQQQpgOrGDWsDwk7mnCTH/GwKBC7DhDbmgfjDov1nCOOAwhhDArGH6OS9SLeiwh0MGEmFtaTRcB5pbWS9oOZWxB9BBCCIuD9sm8r8qZ3B9DXfEgQqy7iTaWErTUDN99993tZKUQQghhlrz//vtNe7in9a0QL2YUDskgQmwHQojVCt9zzz0R4hBCCL0g/EmIVegQYmVNQ4dEBxFiQXP1whK0ZK7JnB5by7EQQgiLCb2hQ8qZ7r///mYIDqlDgwgxvzz/PCFWuhRCCCH0CSEWK3bMrvykIWPFvQqxDiey1PjkdTiRSv7OO+9sfzaEEELoBzXExJibWtKwhOGhDMNehVjNFmtYyZLUcb0/I8QhhBD6RtKwxC3lTOLF+lET5iHoVYj9T/qf9T+tcYcA+VjPhwwhhLC4cENzR7OCGYXc1HpZaInp8T7pVYiJL5e0TDU7kRBCCGFIGITCpNpf6ketomchhbhOv/A/qXkH13Qad4QQQhgasWJGIl2Sv6Sstu+64l6E2P+U/znBcK7p2nWEEEIIQ1J9LSQSV8tlZxb3yUf+Xw/52vzvBPh73/te9w//8A9p3hFC6I1PfvKTbfzpn/5pGx/72Mfa+OhHP9rtt99+bUxiSVRTashhsVCzmgwJp7x5yW1ZPA4++ODukksu6TZt2tRdffXV3ZVXXrnH62OavPPeByHaXoT4xz/+cXfLLbe0Yw7vu+++nDUcQuiNY445pjv22GO7z3/+891hhx3WFtwDDzyw23///XcI8ySWROE0Q/zQUO0hu5brkmdv6E5MYfp84hOf6I444oju5JNP7v71v/7X3V/91V+16+NP/uRPuo985CPbf2u69CLEdo3G//yf/7P7H//jf7SA+JYtW0Zz9FQIYbFgvVg8Lao1TjvttO70009vgnz00Ud3n/3sZ7vPfOYzTYxZyh//+Me3/+sPYAlbowy5LYZsWvWm1jB5LkSZO9Mg2DJtw3xDbF0LNmv/4T/8h+7f//t/364TG7dZWcUzF2IXs/aVxt///d93f/d3f7cjCB63TghhFhDh448/vjvhhBOaZWMcfvjh3ec+97nuoIMO2iG+BNqia+zJNV1GRFnGqjxYwQRYaE0sURmmRhDu9x1TDNOHELsWPv3pT3d/9md/1n31q19tGzgbuV29JtNi5kIsrsKFY3zzm99sYpzmHYuPi3ky9ubnusCLuuTcGjZtrhe39VgIq8H1RVRZLxs3buwuuuiiFu+7+OKLdwiv63C9iBMTZiWYFWrTq9hJPp6LkTH/uF4uvfTSNsSKr7rqqrbBmwUzF2IX5R133NGG05Ucd5iSpcXHYsj1d+ihh7YYnGERdHGXGFusuPJqUasYHBdgufpCWA2f+tSnuhNPPLFZLwSYGB911FHdkUce2a5Jm8NpCLENo+F65eGr+tPqFCiGHOYb14trR17Bv/k3/6b7xje+0daxSWNiWsxciInu3/7t37bhmCmx4cRRFpOyeg2Cyx140kkndYccckgbXD0sFYshCK34G3efUAV3H8+JsjZi7DGXZV2aM7pEwwLB/cxykenKkmER9wE3tY5MDI0f/OAHzUoOiwF39H/6T/+p+8//+T+3sMa0NnOTzEyI7RaJsJjJ3/zN37ShtaUF1nNhsRBzK8ujbi2KBlEui3jSNeg6KIvYKIvYcN0QZqIsOUaOgSx7busQdoX14hqz8RPXu+6661qMWFJWH9g0SuTSMVD4TXWITWa8OvMP4ZWw9e/+3b9r15SMahnU02RmQmyB1aWEBfzf//t/7/7bf/tvzRWZhXQxIbysj4rLnXXWWd0BBxzQFscS3rKWJ6nLzq1rwzXCQraouXZYFo4nkwjDWs4mLuwJ15kwyLnnntsWza985StNnI0+qOuXi/q//tf/2v3v//2/2+Yx+TDzD1f0l7/85TbOP//8do1Z26ZJCfFH/8sfaPemhBif5h0SGB588MEWN4kILx4s3vPOO6+77LLLmivQhSpGJzvV4lj1mdU4YW+jfqcWTztOFztXkLpP8Wbubb/Dck4yTJjEtWIzeOqpp3YXXnhhd8opp7TratouxL3hdSzYrk0Z1FzVLGKWcphvfLeuL/pls8cqnlbSX/HPv/sgXDv16DOXjAxCMROWzZQN7jASLH5f+MIXur/8y7/sbrzxxpYgo06TO5poroZazIh3XfCXX35599d//dft7//5n/95t2HDhva3Q5jENWOzZtMmYct11JcIT2ID6X1widtEhvmHdgmPyYy3ybLB8tgsNG1qQsx1yLUoxsedyCoW6wuLBaE855xzmvXBImaJWATFii2K61kI/TsibtdpMbOwif15HVb3Nddc05155plTdw+F+cX15nrhhXHtDCHCYIW7LiUmzqrUJfQLweXpePPNN5sgy4inb7NIOp6aEHMZSsjimvGGWcWStGIRLxYsYdbqFVdc0UTRzxbBWWBRJfzE3mv+xV/8ResDa7ELAYS4whrEcCi8Dx4bYtxXfDrMHh7e6qymdtztLBLxpibEsl/tHCpOIkbisbBYiNeeccYZrV5TK7i1uKJXA+uCdXzcccc1y1gs+uyzz241frPaAIT5woaNEA6N92AujOG9hOlQFR68u4SYZTxqIZakpeRE9iBLOCwmRFH7QKVKfcZsvS7x5RZXLyqDUW1yCGOB909iT7yAiwdNo22zOsJ33ULsoqv4sDKTxx9/PLHhBYTbj8tNLJglzDKedk3dh8Ey5pKWyCU+TZBlbldsMIShsRZGhBcTvQx4eyUgu0+Mp1lSuW4htgNkuntzmqBr9aaOOCwWRFj8y6jypCFick5D4RpXr0yUJXRJ1gkhhFkhTqxDpPwnoVd6N82krXULsTfjTVYTD280xeyLB6uTK5roEeGhMlSVqHCLy6Z2Mgo3ucdCCGFWKF3S+U+yFo2jd9OMFa9biL1BfnNmO0EOi0klovTZLGFPVGIOt3SdrsNVHkIIs0bXNKW59E5p07RYlxCLh4gNM9m5pSPEiwsBJMJDloighFhZkyYfsqg1UWAVp2wkhDBLJG0RYuW5KoOmlZy3ZiH24t4E8ZVN9thjj+Vw7NAb3OPixcqaLrjggpbApb1mCCHMChbxU0891Vo3S0p2wNE0krbWLMREWBMPQWv1VU8++WTKlkJvyNhWvqSkiVVMiLmrWctDus5DCItLJSWziMWJeYSnkbS1ZiEWG67WX3YGErTSwCP0jfpiWdSE2KETyqqSRR1CmCUEWG6U4f56WZcQS+OOEIchKSF2BGMJcQ6HCCHMEuJL+wYXYoFqDTxkj+XIrzAkXNEEWfLW1Vdf3dzVIYQwKxieXNTGNMp11yXE/OQR4jAGZE1re3nttde2BK4QQpgVxFdu1GBCLEmLC1r2GIvYiBCHoZG8JWv65JNPbodCSOA64ogjkrgVQpg6WlwKyQrP0sL1Jm2tWoilahNiGdKsYTXE0yxsDmEtqCFWzsQtzUV92WWXtfsR4hDCtNFViwbKnNZxa705UqsWYkla6oUNNcTqqJQxhTAkBJcYixWfcsopreuW5C0HRciijiCHEKZFnbHACFU9pPXlepK2Vi3EXow5Pu1emyFMAy5qh0FofXnqqae2QyEcVJEzYkMI04ZhWv2n1xOiXfXqxAQXF5a2zRoOYUxowckqdjAEIdZ1y/0clRhCmDY0UHhW4pZY8VqPwly1EFfTa2I8jfqpEKYN65dlfNppp3Vf+tKX2ilN6UMdQpg2XNMyp3WWFCuWQzVTIa4kLS+mbMmRh8zyEMaGeDAL2GEQGn1o+OG+lpixjEMI00L2NNc0q7h6T68le3rFQiweLDlLYNqLihN7EyGMEWJ84IEHdkceeWQT4ksvvbSVNqX9ZQhhWkhUZhXLoCbEJcarZcVCzPplDUvSqtqptLQMY4UQ77///q3lpSzqTZs2NVe1+DE3dbKoQwjrhaeYQSp3iggzVNcSsl2xEHsh7mgvNo3TJkLoC1YxF/VZZ53VXNRKmhIzDiFMC0apkl4auZbs6RULsT9eQhxLOMwThx12WHfOOed0Z555Zqst9rPzjEMIYRrQRNpII9fS8nLFQiw+rFaKazpCHOYJWdTGMccc011xxRWtJzUXdQghTAOaSBvlTwnbcllr+rFSVuWa9iIR4jBviAerL+aWLiHmnvZ4YsUhhPVCE8WHX3755e7tt99edRnTPoXYC1QbL72l3UaIwzyiw5aDISRvbdy4sR0OQZBDCGE9yJ5mCStlktQslLuazpMrFmKWMCGWMR0hDvOILOrDDz98JyFWWxxCCOtBAjNLmD6WENPJlVrFHyrE/khZw17Ei/F7r6VzSAhDww0tVixZywlNhvaXzjJOFnUIYT3UEcGEWNKWvKqVsk+LmBBTeX+U3zuEeefQQw9tIixWTIglbmmJGUII64GLWnMP+VSM16lZxJUt7Y/nuMOwCLB+WcGStxwKcf7557dTmkIIYT0wVtUTV9LWStmnReyPUXfmdizisAiUi1riltaXV155ZXfEEUdsfzaEENYGY5UQOxSpTmNaCfu0iBUpP/XUUy0bLB21wqJAjFnFJ5xwQuu45cjEY489NvXFIYQ1U0IssZkXeaU5VfsUYvHhRx55pJ0/HCEOi4QDIMSLjz/++NZ5S8xYIlcIIawFQsx4dUJheZFX0thjj0JMgGV/aV7NvCbGGnrENR0WCU0+lDRxUWt/KVYseYtA57jEEMJqIbp0kzUsrEs31RPvyyreoxD7Y+qg1A7Lml6JaR3CvKLRB9f0hRde2KxjTT7SizqEsFZoJg0V0iXG+7KKP1SI/RG3EeKwyLCAWcKOSTScW+z4xBBCWAs0U8WRemKW8b68yXsVYi5pZUv+WIQ4LDIyqJU0EV/lTDfccEN30kknbX82hBBWBw0VI37++edb8taahZiKl5rvy6wOYZ6RQS0mLGP6jDPOaOVMrOIDDzywuahzMEQIYTXQTHFi2dMEeV8aukchpt5lERPiWMRhGSDGn/nMZ9pxiZK3Lr744tb0g8UcQggrZSox4kkhjms6LAuyqFnFRx55ZLOMCTFRJtCxikMIK2VXIV6Va9o/Viv861//uvm1q19mXNNhmRAvPvHEE5uL2klNXNR6UUeMQwgrgWZWshYtpam0dW9G7R6F+De/+U0rSo5rOiwjLOASYmVNrGSx4rioQwgrgWZOCjFNXbEQU3H/gClNwRUi6xQSIQ7LBMuX6LKCuai/+tWvttOalDmFEMJKoJsGTZWwpSfH3lzUHyrEFHxfvu0QFhFCzDImxF//+tdb+8tPfvKT258NIYSVQVNlUIsZr0iI/VK1tfSPYwmHZYZlLIvawRAafTgcQhZ1LOMQwkpZtUXsl/wy9faPQ1hmCLFELUckStrS7EPsOJZxCGGl8C4T4hVbxOLBkrMc8sAyDmHZ4Z5mAStjIsQsYx24krwVQlgJtNS5DR9WxrSbELOGX3vttabeIYQP+PznP98OhdDow2lNDoog0iGE8GEQYsYtI5fG7ondXNNUW+lSLOIQ/sinPvWpdjCE1pdnn312ixsT4xBC+DCqL8eqk7USIw5hZzT5EBt2TKL6Ym5qiVwhhPBhVNb0PpO1ZEf7hd/97netCLkKkEMIHyAeTIy5qNUUn3POOd2xxx7bxDhnF4cQ9kZZxLR1b705mhCrH/YLlTEtsBzXdAi7w0WthEnS1nnnndfqjD/96U9vfzaEEHaGrooRC/kK/f72t7/dzTLeTYgFlA2/HELYGRnUhx56aIsRa/IheUsWtVKn9KIOIewKLdWbg66WENPcSZoQU2dPsoLdclHvzZcdQuiaS5p7mpv6sMMOa27rlDOFEPYGXWXsclXv1SIWE5bVRYj5sHdV7BDCH+GOnuy25We9qUMIYU8QYhq7VyEmvExm5jMhDiF8OM4uJry6bl1++eXddddd15p+hBDCnhD+pbG0dtd64h1CTKkjxGEeqFNNhuyFXqczEeLLLrus+8IXvtCyqD2eWHEIYVdoK42ltXsVYvFhv8B8DmGsKAF46aWXuldeeWXHxnHIfAalS4cffnjrRS15Sya1n0MIYZKKEQsD79E17UF+ayZzhDiMGddoCbEsRO6eIYVYFrXaYh23CPH5558fIQ4h7IZjhfcpxCxii5yFLYSxwntj0/j66693Dz30UPfoo4+22veh4IbmjnZKE6v4oosuat23/JxGHyGEgrYyHvbpmo5FHMaOa9UF/cYbb3QPPPBAE2NHjA3N/vvvv5MQH3TQQRHiEMIO9hkjZhF7slx9IYwZSVpixc8++2z3+OOPdy+//HLrWjNkW1ZZ1LpucUuffvrpTZCPPPLIJG6FEBolxAxeburJEuEdFnF11YoQhzFTrmDX64svvtg9+eST3XPPPddt3bq1PTYU3pemHuqJddu65pprmmUcIQ4hgLaWEPM87yTElJlSszAqCzWEMUPcavO4ZcuW7v777+/uueeedo72rjvNvqgNguQt9cQSt1jGxx13XOvC5bkQwvJSFjGtdd9aVeznAfFhvyDpJUIc5gmnmtx5553d9773vWYZ23XuGn/pk4997GPd5z73uR1dt2RRO8fY4yGE5WWfQlxibEw+GcLYkUH96quvNhf1M88800qbXOhDwfI94IADus9+9rPdqaee2l1yySWt0Qe3dQhheWEgyGMxaO5kGHg/Pxh81kR4yJrMENaKTeQTTzzR/eQnP2nx4qGRvOWEpquuuqo78cQTYxGHEBo0lt5OJpfuEOIS4SHbBoawVljGXNP33ntvs4pVAUzuOPuGZcxFLXGLZUyUHZ8YQQ5huaGzpbtFE+JdM7hCmDe4eiRuKWd66qmnmijLeRhqYyl5i+hK3jr77LO7P//zP+82btzYGn2EEJYXWstNPdmzowlxXNJh3nFRb9u2rXv++edbvFjHLU0/hvTy1AlN2l9ef/313QUXXNBix8Q5WdQhLCeE2HrFeCj28wAhjks6LALiLg8//HD3rW99q1nHYseu8SGvb7XFEraUMxHjk046qSV0hRCWD8aBdUo4rdhhEcc1HRYBu0wW8Q9/+MMmxFUbP6QQa3d59NFHt5ImQqwVpi5cafYRwvLBLW1NYiQU++nykbKlsGi42Lmpb7755lbWNBmPGQrtLy+88MJWX3zYYYc1FzX3dQhhebA20VzaW0SIw0LC/UOIf/SjH7We1GO4vh2XGCEOYbmxFnFLq+wo9vMAMznJWmGREGpxEMTTTz/dsqgNyVtDWsZEl/hqe3nFFVd0F198cUveCiEsD9YmYjy5FjUhFjhmLoewKJQQc0sTY3FjZxgPLcSORpS4deWVV7auWxHiEJaLPQpxkrXCosLL4/rmor711lu7Rx55pJ1d7LEhrnfJWYbkLQ0+JG9p9kGYJW+FEBafPQqxB1jDKV8Ki8oLL7zQff/732+nNLGShw7FKF1yVrHsaZ231BkrcQohLD60lubS3qId+sBCSIw4LCqSEQmw84tZxW4na/j6pmLFsqg3bNjQnXfeeXFRh7AkEGHh4J3KlzwQIQ7LgBjx3Xff3bpuTZYODMUhhxzSjknU+lJf6hDC4kOIkzUdlhZWsSYfTml65ZVXdsSLh+KTn/xkd8QRRzTXNBe1zlvEOYSwuJQQv/fee9sf+YMQM48JsSdDWGScUyxeLIP6scceay7qycnQN/pN60XNGr700ku7G264oTv++OO3PxtCWETKNb2bEKd8KSwDrnNWMAF+4IEHmhizkoeqGpBBLV78mc98pp3QRIwlcDkucf/999/+WyGERaKEeDJPZT9+ag9EiMOy8LOf/azFin/60592r776atuZTmYw9o3ELS5q5UznnHNOG4kZh7CY2PQrXeKJLvazCEWIwzLhIAidtmRQa38piWsyg7FvPv7xj7fYsHpisWIJXDKqQwiLR/U32MkijhCHZeXnP/95t3nz5u6uu+5q7S+HRvIW1/SmTZvaaU0hhMWD1tLcncqXKkacrOmwbPzyl7/sHnrooe6ee+7pXnvttcHL+LS/lKzFItaP+sADD2yP5bjEEBYHawy39E4WMX+1Th/prBWWDcK7bdu2lrwlcauSt4aisqgPPvjgJsZ/8Rd/0VzVOaEphMWh9HYyQbQJcYlxCMuEXSnhfemll1p9MSHmrh5qLrB8CbF2l7pt/dmf/VkTYo/FKg5hMSgR3kmIt9+GsLTosqXb1p133tmSuIjzkMlbLGDnFcui1uTjjDPOaGcZS+oKISweEeKw9BBi1vAdd9zRjkxkFU/Gb/qmhNjJTISYVUyIP/axj23/jRDCItEOfVDTNGkmh7BMcBWpIybILGI1xuqLhwzZiBcTXsclXnXVVU2QHZVIpOOmDmF+sa7sVkds5++BZE2HZcdcIMS3335760U9pBCD4BLia6+9tlnFhJg4R4hDmF/2mDVNmYdq8RfCmDAP3nzzzdbk45lnnmmDm3qouUFwnV2syxY39SWXXNLqjNP+MoT5xXpiraG9RRNiBcYR4rDsmAdqi1nDLGM1xrpuDTk3JGgRXgJ83XXXdeeee26rLw4hzCfWE2vNTkLsQWNIF1wIY8A8UFvslCZWsY5brGItMbmShhBksWJxYclaRPiss85qrTAdDKGsKYQwX6R8KYQVwG303HPPdbfcckvLpnZIhMNRhhDiwglNJ510UitlEi8+5phj4qIOYUGIEIewC5IpuKg1+igXtSxq1vJQniMnNDkYQgtMzT7EjOOiDmExiBCHsBdYwFzU3/3ud5tlLMuREA8ZxuGivvjii7sNGza0DlwhhPlnPzEoIyURIeyOwyDuu+++7sknn2yJW2qNhyz104eaNcxFfeKJJ7bjEp3aFEKYD2itvI/JBj37SfjwADEOIfwRli8r+Be/+EX3wgsvdPfff3/3/PPPD9p1q7Koq75Ysw9WcghhPqC3Ns9KE4v9HLNGjCPEIexOZVGLFxNiWdR+Vn4whIvaTlq8+KijjuouvfTSNpxd7DHPhRDGTc3hyWTL/agydc4kDmHvcEtv3ry5JW69/PLLzUom0kOhy5bMaQdDGCzkxIxDGD+MXp6tyfLD/agydZ70V4cQdkbHLSLslCbuaecYDynE5u2RRx7ZnXzyya0PtdKmCHEI44cQ09vJ09TS0COEVbB169bWi/ree+/d0f5yyLlTZxdv2rQpseIQ5gDrRelu0YQ4IhzCypBFTYi5qQmxDOoh548sah23IsQhzA8lxkXL0PJgxDiEfcMd/fbbb7c4seStRx55pDX/GAouLm7qI444oonxDTfc0OLFIYRxUuVLO7mmt9+GEFaARu1qiR0Mob5Y3Fji1lCY0JItWcMyqL/85S+3eHEIYZxUstZOQmwSJ1krhJVRLiVW8BNPPNEsYqVNxHjyoO8+scM2j2VROxRCApf7Sd4KYXzYPMuYNmeL/ZRBpHwphNWhlvjpp59uQqzZh4Mh3n///e3P9o9+ANzTum45MpFV7KCIdMwLYVzQWsbvTkKc8qUQVo8Tmt57772WvMU9LV78xhtvtMcnkzD6gruLGBNf5UyXXXZZOy4xQhzCuKC1+nccdNBB2x/5w/xNQ48Q1g4XtVjxbbfd1lzUkrl03RoKm2p9qK+77rrWizpCHMK4EBvmiZ4MHe0Q4ljEIaye3/zmN92WLVuam1r7S2LMbT0U5vHnPve5HQdDnH322S2RKxvtEMaBOcoTPXmM6Y4YcYQ4hNXD+hUb1nlL8hbrmIt6KFjAXNR2245K/OpXv9qdeeaZO7XTCyEMB63dLUZMiKlzhDiE1SMerKTpV7/6VbOIH3jggVZjrMRpiBaYhLh23BK2rrzyyibEhx12WItL5XCXEIbFHNwta5p5HCEOYX1wUXNLE2JnFxNjjT+GapRjsnNRE2EuaglcXNSxjEMYlhLiybmYGHEIU4BVrITp2WefbS7qxx57rP08VAtMljH3tHpi8WJuasclcluHEIZDvoaErcm5uJ8HiHCyK0NYP5p6OKHppptu6h5//PFmKStpGrKFLAFWzuS4xEl3WAihf1jEdHcni9gPHkzsKIT1Q4hlUN96663dU0891cqbiPGQQqzRx4UXXtiE+JBDDmlinCzqEIahXNMStooIcQhThjuaIOu4dccdd3Qvvvhis4qHwoTnphYnvv7667uLLroo7S9DGAibYG7pnZK1IsQhTA+W76QQ33nnne1WDHkoq7jKmVjEX/ziF5t1nPaXIQwDId6tfKmypolxCGE6KGtST/zwww+3xC1uaslbBHkoiK8DIWRR60d91FFHtbkfQugPWrtbi0s/eDBZ0yFMD1bxpBCLGxPiIV3UBx98cBNiLmqZ1BHiEPpnj0LsAWZyhDiE6UKMCa+aYi5qguy4RI0+hjoYwjxXT7xx48bu3HPPbVZyCKE/uKZtgDXTKtrpS8miDGF2vPLKK93tt9/eypp+/vOftyxqIj0UGn1cfPHF3QUXXNCyqEMI/WEzTHN3EmLWsIStJGuFMBuqF7WkLecXy6L+9a9/vf3Z/rEIEGMtMFnFZ511VgQ5hJ6gtdzTdLdoWdMUOkIcwmzgnia8LOPNmze3Fpjvvvvu9mf7xyJgN67r1qZNm7pLL720O/zww7c/G0KYJbSWB3oyHNyE2IhrOoTZIB7slCZWsTixFphEmZt6iIMhKlb82c9+tlnDXNTOLvbzZElFCGF6KBeksyXCk5VK+6kx9EAs4hBmS53QpPVliTG39VCwimVR60OtpOm4447bKZMzhDA9CHC5pN3uZhETY7Fit7GMQ5gNkrRkTYsV33///c063rZtW6stHiKL2nwXGz722GPbKU3nnHNOs4pDCNOH+KpSkiBt7tHeoiVrcUdp7KH7jl8IIcwO9cVaXyppYhW/9957g9YXm/tEWKz4yCOP3P5oCGGa0FobXyWDVTZctNOXPMAlFSEOYfY4p5iLmkXs9rXXXmtiPBR26Mcff3wTY5nU6ownSytCCOuHzhJhOus+7S3244pmIhNivzSp0iGE2eFkpoceeqhlUnNRD4U1gPASYIlb1157bRPmEML0YOTqbmeuTcaHsZ8kLUJMpZnNEeIQ+kHyFqv4wQcfbFaxgyJkV/cNITbvxYfPPvvs7sorr2xZ1B7bdcEIIawN84mxy+jdTYj9h4lMiA899NCUL4TQE5K3CPCzzz7belE/99xzzW09FHbsErfOO++8lkVNjG3OU1ERwvohxDR2r0LswRLiWMQh9AMhdhCELGqnM4kXy6qWQT3EkYk8Yw6CUFvsYAgnNFkTxi7EPqshss5DWA201caW1u5RiLmmqvflZAA5hDB7WMHKmX70ox81y/if/umfBmn0URBkZxdff/31TYzHXNLIla9L2dCfWQj7wrxSoUBrd51TuwmxXw4h9AcRKSFmGftZvHgobMYdk0iINfwYsxAr+4oQh3mAttJYVQp7FGJmMqVO1nQI/VOuVV229KFWY/zqq69uf7Z/uKJtzLnRuKkJspjxGNcGGxZ12eLsNjE8Ctz7IYyNsojVEO81RlzlS6kjDmEYHAxBiB2ZqNHHUOiJS4iVWhDiG264oXXeGqMQi7O//vrrTYi1DSXGeniHMDYIMZ3dq0XsQU9S67imQxgGrS4lb7Hqyrp76623BklEqgb1RxxxRDsqUfKWjGpW8pjySHgTxImVgjnvmTfhpZdeGqwULIRdYeja2LKEVyTEiRGHMBzinYT3+eefb5bxww8/3NyuQ2UEE+PDDjusWcOEWLzYOcZjXCN0JnPW8y233NLKwFjKQ7YNDaGwcS1D90OFWEyIS5oQ+0Xp1XFRh9AvrDtW8TvvvNOsYS5qJU1+log0REmTdcCaoKZ448aNLYnLQjI2WL8+p4oX28TwLgzxmYUwSeVbCPWwim1kdy0J3E2I/QO7Xv8ghNA/xJiY/PCHP2xHJko+YuENYRlbGwxu6auuuqp13rJOjBUbFpuY2267rbmoI8RhaGgpz5IcLJtYQszbNEkTYg/yY0vGoNpa3Y1x1xvCMkBwxTwlbBEV1t2WLVsGs4qtDxYRB0KoL+amPvroo9tOf2zYxMg4Vw5mM8NCVt40lHs/BPOEpvIslTW8VyE2+LL9coQ4hOEhurpulWUsq9pjQ4gxj5mQlTixXtQOhyDOY4OLmktajL3Gm2++2f3Lv/zL9t8IoV9oqQ51YsS7xoaLHY7qsopNtsMPPzyu6RAGhuDqRc26Yxmz7sRBhxCV8pixhC+66KJuw4YNbZ2w29/b4jIEPpuKFYuvP/DAA82zwLXvuSE2MWG5IcRc0ysSYphsYsQOB/ePQgjDQTSIytatW1smMKuY23XIrlvWB809ZFI7KpH3bIz1xURXjFisWCkYV7/PLUIc+oZRa9O6px7TxW5CHIs4hPHAHa1BxYsvvtiOSyTI2jkqzRki7ilRi1WsB7V4MTEeY/KWz4ZVLL7Om2Azo6d3aotD37CIK0a8IotYEJkAp9VlCOOCJayc6b777muuVqIyZJ2syorLL7+8u+yyy9rGfWywfCW3qS+2ifnJT37Skre4qEPok0qCpq00dk/s9Ci1LiEeY0ZkCMsK644IP/TQQ63hx7Zt2wZ1UdvhX3jhhd3FF1/cLGS7/r253YbCRoVHgYt68+bNLWYsg5pVHBd1mDXyrggvLaWptHVFFnEJMfWORRzC+OBi/fGPf9yEZcizi1VYyCM55phjuksuuaRZxnJLxgjXvuxpLmpZ6DYxOakpzBIirFSJngr3ypoWwlmRRTzpmqbi/lgIYTzIotZP+d57723tMIfKBCbEFhZCzCrmpibEY1wzCDERNngTlDdFiMOsIcTmCMNWkuOKLeJJFa/saQHmCHII44CAyAAWM5aI5MQhPw+FteKEE05oHbe0v9SBiwUwRsSKv/Od73R33nlnO7HJZzlEKVhYfBi1BNh8YNjauHpsb1q6m0VcQsyUjhCHMC6Ih0QtCVsOOSDEfh4Ka4XMaUIsi/q4445ra8YYIcTf/e53mxCLuYuxp+NWmAU004Z08sSyvbmlsdsz/kDVE5tgVP3D/kAIoT+4oYkHdysh1rDi5ZdfblbxEO5W64VFxq6fGIsVS94aI6xfnxHXtCMT1RcrBQth2pQQmws0dG8u6WKPCkt4WcSE2ASLEIcwLn75y182IdZ1SwKSn4fIorbgWB9Yweecc047GELceMzYxMg+1yBlSG9CWFzMCUJsLqzEmN3js9SbAJcQm2whhPGgBOf9999vsU6iIotaIpeSnSHinqxim3euaV23zj///O6II44Y5drBe8Aafuyxx1ppE2EeshQsLB6ue5tT4V2CvCYh9o+4pk2qWMQhjBeWsAzqOvaPoAwhxDbvaok1+mAZX3PNNW0jP0YhZgWrKSbEOpXZwNjUhDAtJoXY7Zot4vJv+yOxiEMYJxpWOCJRaY7OUeLFQ8Q9rRFySyRvOaFJSZNbG/mxlUI6KrF6eHPvG05oGqptaFg8XO9Klz7/+c+3evs1W8QEmGvJH4kQhzBOiEedNkSMJSFpWDEUqi7ExbimlTMdddRRK7IIhkBDFDF27S+Vg2l/mV7UYRqUEPMQrVmI/RHnj5pAk8XIY5xMISwzLDiZwFzUhLiyqLVyHCKLetKbRojPO++8JsZja38J7miflXgxFzXPgs8thLVS1z+XdOmmzem+jNm9KivR9UclYJx00kntPMUxTqYQwgeiwjV9zz33NGER92QpD9F1y6IjecsJTddff32rL7YYjY1KeOOWVo8t6c39ENaK61xu1QUXXNDEeKXe5L0KsT9AjCPEIYwfcU/1sZKQiIpEJKJCiPsWY2uHtYJVvHHjxu7000/fkT1qcz8Wqq6Yi9rmhRDbwMRFHdaKDahr/ayzzmpu6XULMfwRyRYR4hDmAyIi+eimm25qruqhThqydlSMTDmTLOozzjijZVaPDVaxWmxCzEVtQ+P4xBBWS3mRtX0V1l0pKxJif9SxZxHiEMYNC4+YOBiCEIsdy6zuOxvY2lHHv4kVOxSCELOKWQ0rtRT6QMkXS9jnxaPgYAif2xAbmDDf0EixYQmLrvWVXuf7zL7yx/xRf3xMbqUQwu4QD25qSUdExZGJrD3Z1UNx+OGHdxs2bGiWsdpiFsMYY8Ys4wcffLD79re/3T47m5eUM4XVIJzLE8RwXY33Z59CLHNa1qOdrcnjhca0mw0h/JFJIS7LmIU35AEHFiUiLFYszEWYVWWMDUKs/OuHP/xhE+KKFccyDvuCJtJG3h6aabNJiKdiEfsjxFcdlMkk+cILeLEQwnghutyt6mQlb7GKtXIcwjK2QBnWD4dC6LxlsRobBJdrX0MUmxcZ6OqLYxWHfUEnNe848cQTW14Eq3g1Xp99WsR2roRYshbLOEIcwviREUyI1RU73MARgG+99dYgQmxDL6xFiMWKxyrEBHdXIVZbPETL0DBfEF2eHkLsdupCXJOoYsUs4whxCOOHhUdcNK24/fbbW0mTJCSu6yGsPK4664fkrU2bNrVmH0JeY8NmRd9uHbd4E2xoiHMEOewNossSXut53PsUYi6lXYV4NUofQhiWV155pSVtiX8SYlbfEEIsi9r6odEHF7U2mJJAx4a48KQQ60kdIQ4fRgnxscce27RytexTiAt/nNozuyPEIcwPamLVxnK3qpUVL5aY1DflXSPGGh6cffbZzV2t3nJMawpPAqvYZ+Qzu+uuu1rim+StxIvDnnD9Ct8yVoVyV8uqhFjpQYQ4hPlCxjSLTpzYkYm6SA3ZsILwyqAmxjb3rOJPfOIT258dDwTZZ3brrbd2Tz75ZKvH9pgRwiTCtSXEM3FNF5pXM729mIkjGJ0GHyGMH1YcC49VzD3N3SoJyQH54sV9YyPPapD8KXHLGKOLGlz5rGJ9vDX8EC/m2g8BrmV5DjKm6aNkZiGY1bJiIbZjNVm8mGFXm6StEOYHPZVZdrKouVodncjd2jdc1HJPuKgvuuii7pJLLmmetrHB8uWedqwkIeZNIMos4xBAF4lwhW15jtdSI79iIWb9VrKFlpcaW69F+UMIw8BFzcITIyYqDz/8cBOZIbKoiTGrWLmHWLH2l9aVtSS6zBKeBMIr4e2+++5rGxn12DYwSd4KNFCeg0Y11TFuLR0oVyzEtYtlFTvWzKThrg4hzBeygH/0ox+12KfSpuog1TcsB4uXRcwpTZdeemnb4I8R3gNCzLXPrf/2228PUpMdxgUNlDulEmA1hzzsyqqE2PBiJo6g9BhPUgkhfDhERAtHdcVcruKeQ2RR87JZyLj2xImJsXWFu29s+SfOdtZli0tfspv7cVGHsoiJ8Xqa1KxYiAtJWl7Y5BljpmMIYWVI1iLGDjrQdWsobOh52IixWNtaE176gGX805/+tLn1bWjCcsOrI4H5iCOOWJeHeNVCbNIISkvYEuPxRtbiEw8hDIuSJjFPovL66683C28oF7WF7OSTT24uPnHjMXbcgviw855tYHgSHK4RF/XywWNDC+U0yJsy1mOYrlqIZUoTYC8snkOQYxmHMH+oJdZBSjkTd6t4MXHumwp7WVe0vbzxxhtb+GuM2Ky8+eabzUWtj3e1DQ3LBc8w741NY4nwesIpaxJiOwFJW1zUdrKJFYcwfxAViVvixSxjdbJKnGRQ9920QiKoxc1xiVdffXWzjq0rYyuRlNjGKtboo4R4qM8sDIdNo3AKIaaF6/UMr1qICyY5N5IxxpNUQggrQ6x48+bN3Q9+8IMmxhK3hnC3WsisJTxtSpquuOKKlgQzxtAXK5iLmhhL3CoXtQ1FWHyq9I7nxv31suarxoSxazUixCHML5KOlObUgfhEZYjuUQTXoiYRVPvLK6+8sgkxlx/X9ZggxJXoRoi59EuIx/Zew/QpIWYVDyrE3EZ2rkZc0yHMP1zVYsV33HFHE5eh4I52io2OWxp9CIHxwI3RMibAOpXZyGghGhf1YlPtWcWFtWi1aZxGhv+6hdibSWOPEOYf8U9C7OxinaSGggUsEebiiy9uQmyNGbMQs4wnhTgsLjaJchmU2NE/FUSDCrFJIVPMzsBJKmI63lwIYT7R6lIZUyVuyQyWmDRE+0tibIETg+OiFgKTEDM2bF502vKZyT7n2pe8FRYTZXX0zvWouZXrdBp5AWv+C17cxCDECvEvuOCCVsoUQphPCDGrjgizjImLRh9DWHnWF4ucONw111zT2uqOUYgr89znxTImxjYvYTFhbMpfqCTlaeUErFmIvbhRQWu7hLEW4YcQ9o3YJjHWzpEI33zzze3Wz5K3+o59Wl+UhtT6smHDhhY7HlPfApsUn41Mc0lvMtBZyWExESJhDQudCMlOQ4Sxbpt6Wk2vQwjjgBgT4JtuuqmV6MgQdnLTEC5q8Ti9CtQXOxSCZTzGnJQS5KG6k4V+IMQypSUQTrMN67qFWBaZXWtlUMsiS/JWCPMLUWHdVbOPhx56qGVRD2EVS46x4LGEHQohect6wyoeU/KWz8WxiER4CFd+mC08v5IG65wFRiftmxbrFmKTgfCKFZdlbKKEEOYb4qKD1C233NIsZNaex/oWY8hOlYfCMq7N/hizqMNi4mAHCcmSB+tQkmlef+sWYsFqu1Y7Bn7zU089NUIcwgJAcJ02pGmFBC4Z1cp1hnC9clHzuInPWRBzHnroE+LLG8PYpHXTbjKzbiEuuIqY7ZIqUsYUwvxDiCUfOQzCucUygpXqDNF1y6Jn0++8Yr2o1Rhnwx/6gqbRNtffLLL3pybE3pwdK9e0Miam+9gatocQVgd3tBKm559/vvVVVltcVnGfLmpCbHARnn/++d25557bPHAqNaYZqwthEhqmeRVN45YWFhm1EJsM3izTXWKFTEfupGma7yGEYZCsddttt7UOUlzUjlAcwkVtUSTGXNQXXnhh62EQyzjMAtolS5qn15CsZeM3CwNzakLMZy6TzJtlvhPklDOFsBho9CFW/Oijj3YvvPBCs5KHcFGzRiyG1hfJWyxjwmxx5LoOYZq41ljCjEvXmfjwLJIEp37lsoxNkosuuqiJciziEBYHJU16Ud97772DtnK0QEra4qbW8EMMb0yNPsL8Q7tomHwEmjbLzm4zEWKxG24jMeMIcQiLA7f0XXfd1d1///2tleNQdbNchtVti8WivCmnwIVpQbd4WAgxo5IQzzIXYepCzEUtVlxJW9586v1CWAy0b9y2bVurL9Z1S1mT5K2+qYWSJcxFfdlll7WNfwjrxbXFuyK0KjmLCLvOZqljMxNiyRR86sx5/wOxjEOYfyqLmhCLFxNiXbj6poRYolYJsQTRENZLCTGvy6QQ07ZZMZPsBv8jkieI8Re/+MXW5COlTCEsBsqWiLFyps2bN7ezi999993Wo7pvbPQtkhZLMWPJWwyBENYKrRLuuOqqq1rjmGk379gTMxFisIK5p2+88cYWy5mlfz2E0C/iw5NC7ISmIYTYukKI5aVU8pZ4cQhrpYTY8ZsSAfsIrc5MiLmNTIhqR8dNra448eIQ5h8HHIgXV1nTPffc09phStzqu9GHNcXZsFoQbtq0qa031pps/sNqcB0pT+KOdg25nuhWH2VxMxVi/xPc0txG4jcmS4Q4hMXBEYlKmX784x+3ph8Euk8hLvSd5nlzVCJrxlozy3KTsHhM9sKgWUKrvC1zLcR2qiaCCaHBhw44s+rTGUIYBslbBPipp55qiVuafehP3Tdlzdjwn3XWWU2QrTezju2FxYEHxTXDi6uTluuJXvVxDc1U6stt5H9KUbQdRoruQ1gcxIVZxeLEjz32WDu7+M0339z+bH9Yawy1xBK2vvKVrzRvXB/WTFgMaBOXtB4YrGLa1ddGbuZCbMhitEvlMuKuzlmiISwGXNG//e1vW5ctVjE3tdOa9KLuO3nLWsOqsfE/77zzmqu6DoaIIIe9QYts4LihKzbsfP3Srz7o5eqsfp0y0EwM/5NJpAhhcXj//feba/qnP/1p98wzz7SmHx7rO15sUa1G/YSYJ06f4JRPhr3h2lCP7poRGybGNKtPehFiuw3ia0JwF/kfdkxiCGExYP0SX8clPvnkk81NLaO67yxqlq+1xUIqFHbJJZc0A4AXro960DB/uF64ommTGDHLuG996tVfw0Wtzs//sIkRQlgslDRpffntb3+7Wch9n1tcEGQbf+VM1huGgDUnLuqwK0rdeE/0lJbs5xrpe8PW61Vpp3HmmWe2Rh/uC44nVhzC4uBoRJnTDoYgxGLHXNR9HwxhMZWPYr057bTTduSnxEUdCtpDg2iRa0S2dNUNL7QQSwdn+nMVcRtxB+TElBAWB9avkiaZ1M8991yLGcuoZhn3iYWU6Co/scjq8OekpnjiQkF7aBAtokm0iUYNQa9CbBJUE22Tg+soE2M+sMCyaoY48m5XvJcaYVy4PmRRqyUuIXZABJd1380+WDyEmDV89dVXNyEWO5YoGhd1oD00iBbRJNo0lB4NcjWKFW/cuLHFi/vOTgtrg0XD0uF6HFKMvbb3MlTsMawM35NGH3fffXdL3GIVE+e+LWNYXMX+hMTUiLqNARBoDw2iRUMfFDKYEJsQav3454fwyYfV8fvf/75ZNWMQYu8lQjxuWL+EmEVcQsxdPYQQS8bR9z5CHEBrDNpDg1wTSynEYjdaX1bhvU44PpQwXkoAWcUOgtewYYhF1evr3OT0H5uCMH40+Lj11ltbNjWrWKnTEJu5qtqQwCUpR4lKkkWXDzXDErO0XRYjpkVDJ/ENJsSC4pNCrLwgjBcWjgWUVezIu6GFWDZu352bwtooIX700UebENvQDeHNIMTWm+qclKqN5aSE2CDEtGhoIf7of/kD2+/3RrkGLO5uLeivv/76jh61Q7o+w4fDxVdtSu0k+8p6J8Bvv/129/DDD3d33nlnaxzh54jxfEB8XS+16Ll++j4AxlqjqYdkMmsP3n333TbC4iMEauOlrvyKK65o3hHGoGvStTEE//y737fbQVMHTUwZa/pQy1jjKjJRwnhhieqcpFaUVdwXalFt1MQaZeNu3bq1iXMYP7worhvXzH333dfqi/u8dgqLsIxpGbLXXXddW4yHjg2G/iDENoG+c25pTTy0Qx0Dg1jERe1Q7ZYlctipivuJQYZxUt+XBU3WYcXZZuXa4S3xetXH2KECDhdwjSRZaz7wPfFyWQh5MHhRqlSkrJQ+sN7UYI1ba956660dDUeSc7DYuOaEJbQ9Nbilhy5lK4t4cCE2CWtB9YFIwmHthHFiIRXn8905RFtGqjGrLNSKSyuD+cd//McWZ3SNEOcwX/gubbirty9rxP2+XdTWHPFh7mkiTIC5p4U6wuJChNWTE2GZ89Yv14K1bChGI8Q1qiG7xvEVK85iOz4sXjwX9b1VnN9gVdSFvdZdZllPFRPmznz88cdbXJhF7Nrw+rGG5w/eDd8d4SWErBFiXN2MXDd94Nq03rjODO+LZcx9Do+FxYEHhujqJX3NNdc0lzT3tGuwr2tub4xCiAsTw86Ye5O1UyUOsnPDOPH9+K4sXhYyi5fFzUVPjN1fLcTVsAGzIduyZUvrWfzd7363JWm99tprzTrOQjnf+P7McWgraFG0Bqx187ZWvF55cnjhnBZlYxkDYLFwfTl+1wEgV155Zbtvner7etsToxNiu2QLeLmKxAAtvGGcWKx8RyzXsnTcN7j5/Ew0/R7R9juTw2OG77r+DbflG2+80RKyxIE1grjnnntaXNjjro3Kdg3zi+/f980iPvLII3e0nWSh9Em5qG0MbCpt/F23MQAWi2rkwiJWKut6G4MIY1RCPEmVNrCGZOeGcWMRI5CE8qWXXmqHwrtPVAl1CTLBNYgv4ZU1a8HzO9yCxNe/vf/++7uf/OQnLSZMhJUpsbr9nYjwYlDhByJorpeLWn1nn1QIpTwx7rvWYgAsFizhL33pS606R/ml620sjFKITQQuA0N7PM3iTRaLdxgnZd2wKNSCW8QIrMeIbD1HmAmuQaj9nsElSISfffbZZgU/9NBDzQ3tvjKlqhWOO3pxIHo2VSxSCGNwH2qyYb7X47OmhNiwOHsfrk3XMVzbYT7x3co9sLkTF77hhhtazXBl6o+FEuKP/GFSjCbrxVspl+fNN9/chixZrfEStxk3tajxaLBuJEe46GVUW+Q8boGtSWAhJq6G75bVzFIu8XbfY2FxcX1obaum8+tf/3p31VVXtWYxfVvGrj8eGhtC+Qi33HJLMwJ0BAvziU0VC9ggwo7BtCZZi8YkxO+89367HZUQF1yYLKInnniiTQyD+9MOdYRvN4SwDpwF+7Wvfa37whe+0EpMHFtoY2f0Ca+N7HwJgkIjmzdvbhvFrDnzg2vGhp9X9frrr2+j2ij3nYOwEkqIRxcjRn2YXAvl0mRBiRPGRRnC4lFJeyxkNcboy0VdEFzWksRRZXJyHpA1Z35gCUvGcg3pnHbttde2hEBdHMdkCRflmh7fO/sDJqCgut2xoe7Lz7Pq3hRCGA7hCLkBt912W8sV8DNh7hsW0wknnNCya1np1TkuzA+EWK4BrwrdEPZwFrXHx8woLeJJJOpwM3BNS+wxQeMqCmHxsFiyXGzEiaIErr4pdzjr3MZf/Jh1HKt4PpCTonPWF7/4xXa6kgQt11PfYY6VMmqLuOBKsDP1oQq6+5BN1rF+qCGE1WNjLf9Dtr28kNtvv70lTvWNdYX4ComxpL7yla+0Q2nGbk2FP2IDVwla6ofHLMKTjN4ihg9TJm3Vkbo/hOsqhDA7LJhEmRXKvSiD2s8W174XU6/ndeWoVIOP1LKPF0aa4w03btzYXX755W0jVd0ax8xoG3rsChGuAmw7VS4ju+V0vwlhseD+FYKy0eaWJsTEsO9OSF7L63KTK2uqpjTarqaMcpwoeeOSVjO8YcOGdtQlER67NTw3QuyDrA/TDqdqTU2IGiGExYAYGzbgRFmtsaxXPxPIvhZWr+U15agwBKw5mn1Uc5nkqYwDGyaZ9tzQ+kjX8YZ6GYxdhDE3QlyYDD5cwmt3apeq65LJGkJYHAidQyE01JDxeuaZZ+5oCtP34up1ucmVUDoJjCFgDfIew/DwkjrEQZ2whjBc05XwNw/MnRD7YE3Eao0nRsxVVC7qTIwQFgPWJsvTJpsQczua+xbYPhOniL61hifOpp+b2rpjzUmOyjhw2P/FF1/cXXbZZTtlSc8LcyfERe1QTQSx4jqGL31hQ1gsCKEkHJtvlo8jE7ki+8R7IP7eQ4XG9MEXxw7DIxYsu13jDpu2eav7nlshtjMWNyLEdqnc1HbOdqshhMWCdUP8JGyJFduIE8a+krcIccWmrTusYYdCeE/EOVnUwyBMWc1XtEatLOl5soYxt0JsQhjcV3W4s4nhUO8QwmIhHsv65JbmomYR10EifWKBr8ZC4tdyVNx3G/pH5yx9pFnCcggkbPmOaMM8MbdCDB+2XTF3FUEWK5bVWLGlEMJiQIgJHmvHnHcrNOW2NuV9UK9NeK0xLGIJXHFR9wuvhO//ggsuaE07HPiv/XFdD/PGXAsxfOjc1HZBhh2ySWFyhBAWCzkgNtwWXHFBrknzvi8XdWHdYQAQZIdCOGubAWCE2SNDupKziLC8AdeEa2EemXshLvE1uIzcEmF9YZHkrRAWB1ax8BMXtcXYLTd13y5qJzOJV7OIJYtyU1tr0s9gtvieCa7M6KuvvrrFhk8++eQWrphXEcbcC3Fhh+pL4jqSwKWMyaQwQUIIiwXXJCvYfOeiJMh9Yr0xrDGVxCUslvVmtui05twB1rB6YSLMK8IrOs8sjBCbkCan3XG5h0wKXXAQl1EIiwXr2HxnGUvSKXHsA6/DAjNqE7Bly5YdyaJZb6aLzY7Pmghr2rFp06Y2dM+adxHGwgjxJOWmFitW2mRSKG8KISwOPF+E+OCDD26u4nJb9g0hUL5UDT4qsSxMDxny1UdalrQyJU08fO+LwMIJsUnhCzOcmCKJQhzH/exSQ1gMZCzbaLOSJE3xhpnzRLlPrDden8Vms2/wxFl3wnTgfeDxILwOc/j617/eLGObsL48ILNmIS1iEF1xYjspQpzkrRAWDwtx1fCKH5aLuu/EHWuN13Wr49YQ5ygvKjY5MqNvvPHG1kNaA48S4UUT4n5z/3vAFyWz7ktf+lJzY8hw5LbypYYQFgMVEps3b+7uvvvuJn466w2RuSxOrKHE+eef345tDNOD2J522mnd1772te68887bkai3KCI8ycJZxL4kX5YkLhPTlwduI/GcHA4RwvxTni+xQnOcJSw/xMYbfS3Wtd7wuFV82HuToxLWhu+UEaVrlgxpSVo2PHIBFk2EF9Y1XRNDDEd6u1ZoJoUjzLiyTJjEjENYDMx3iVLmtab/xx57bHusrwXb69gEGLxxBEOc+MUXX9z+G2G12FjpmvWNb3yjCbLvlTgvoldzYYUYNRFZxWLFdqomKouYKKcNZgiLA8+X+c41LGmLKPaZRV3rjc2/NYfb3PCYTUJYGb4zcWBufk07dM+SiFcu6UVkoYUYJoEJWZNDMgdB1pYuJzWFsBjwblUjH9aoRdvQ7KNPCAWLmOWmUqNKmhzTGlaGTRTxVaaklzRvps/UOr6oLLwQgxibIL5IpQYmhjKDmryxjEOYb8zlCjeZ6wTZptuRiehrEbfW2PB7D5XNLS9l69at7b0ZYc+whH1fZ5xxRnfFFVc0MdZDmjW8qJZwsRRCXJSryu7KJIWjE7WmCyHMPwSYFarGWNcl9abmfd+NHwiypCLWHRF+8skn23uLEO8da7Le0URYC8uzzjqreTd4MxedpRNik8OkNEHEirmP7FzdH6LsIYQwPcxjfQN4utQVs6bMeVnUxLEvvJYNP/e4Nrv6GBBi781t+CPWY9+PvtFlCZ9yyiktOWsZRBhLJcQFNwfL2GSpLDzuo5QahLAYmNs23vJBLPLijH0KMeo92BRYb2z4eeCy4d8ZlrA6Yc06Lr/88m7Dhg3tO7OBWhaWUojFcOxWfdGyqcEy5s6qWFMIYb6R+8FNzbKShQtzvw9B9ho2+ITYrRJKCVu6bhFilvuyu6lr/fXdEGF9pImwn5dJhLGUQlyUZWxymjC1g45lHML8wwVMjImgjbd5ztIyz/uirGKCU143QsxFvewbfmVmp556ahNhZUq6Zh1++OHtu1o2llqIxR9MEF+8YdLYtdYBEXatIYT5w/wlwtzB5rafJf5U3NFc78sy9vo2AzxuqjWUTW7btm1HVvWyUR7J448/vvWQriMNxYU9vowstRAXJotYcWVWspRN4ljGIcw35rYNNWtUgmYJMddnn5YxWOjKJ72X5557bmn7GLCEJWbJjGYJa125rJZwESH+AyalSWqSmKSEmFUs2xHLHssJYV4xd8WJX3vttZZFrS5VJnPN9T7xuo7ys648+uijO8oml2V9qZi5GDDxlR3tWMNltoSLCPEumJyaxttJc6HYxdrBhhDmG2Eo1nE1jjDP+4YYVVJo3eeuXgZYvbLXuaEd4lD9o5ddhBEhnoBlLJlDOj1BJsRE+OWXX97+GyGEeYUIO4hB20vNIsRt+4TwWlPc8sAJfzm6cVk2+pqrsISvvPLK7rrrrmuiXGWky06EeBdcFIbJwpVk58qd4mcurripQ5hfZCxL2iqvF2usckP6xGvKnBYCI8gyqN0uGtZNljARLle0TRCPhM++1ttlJ0K8BwivySqpwA6WpcyFpAYwmdQhzCfEjhvYnAYhELMVL+4TIswa1+hDnFjJpE3+IiZvWUtZvixhIuwgB0dUsoSJdET4AyLEe8DF4QIyYd0XW2IJu+/isZONIIcwX5jDcj7MYaVDxIAQm98eM+f7oNaX6rDFEnZcYlVpLILXTWivYsIadWhdyRImwjYiEeCdiRB/CCYn97RsS1axCUuEZWDazYYQ5g8irF8A97QsankhQ7ioy/NGkOWhVD/qRdjk2+Ro1uEYQ4lZ1157bXNHJya8ZyLEH4ILhlVskhJlE9du1USpXXXtakMI84H5W/2fzWmbbIJYLuq+hMIaQvxZxFzU1hNjnl3U/n94GVjC6oTFhVnCSpZqHQ27EyFeASamyeokFxPXDlq8ST3gshblh7AImL/EwZGJsqlZqX2JRW304XVt8nXcYhnPKzY0hFeJkuxohzhwUZcl3NcmZ96IEK+Qqi8myHbOXEgSP+yu7WhjGYcwX9QcNqeFnyRQuc9y6wOiRPRro+/92NyLFxPleepFTWgJruYcYsIGQZYt7fOMCH84EeJVYgcrVuzCUwtoIk0mWoQQ5gNiZwNdm+zKZub56hNriPXE+2ENqyu2uZdNPS+oMHFoAwuYO1ps2GN9x93nlQjxKqlJa+KYtHZ5SpuqBrB2sSZVCGG8sEDNV3PYfLXJJh5c1Ogri9rrsBq9h+q0JWZsgz92rIW8Caeffnp36aWX7rCEjzvuuIjwKogQr5HaxboQTVzuahnVJpAJlfKmEOYDgsz6dGsuywGpDXffEGQCtmXLlu6FF17Y/uh4UY5UjTokZxFknQkjwqsjQrxG7J5N1Gr84X4V5RPiihnHMg5h3Jir5i7rmJfLptrgou4zrmlN8fpETDmT9pcYY/4JI8SGRb9o7SqJ8WmnndZKlCLCqydCPAXsniVbEGWTl/iyju2wU28cwvygfMjcVYKj5AZ9inG5yb0P64qQ1xizqB1j6AhDNcLOFHa2sPXPew6rJ0K8TsR37ADtoGUNEmIxHjtsO1mTGrGMQxg3RM+hELxahIablTBWidGs8VrWE8PGXlKoODEXteds7IfC6wvHWeu8L+L7la98pcWFZUpz6UeE106EeIqYQC5G3bjESVy4LGIiTJxDCOOHCJq/bs1n9/ukBNnrOxTCKC/bUBt674U7+vzzz+++/OUvt5jwhg0b2jGG1ru+NiuLSoR4ShDd2sW6OI8++ujmXlKKQIRzpnEI44fVaS4T4Ere4nYFgewDImwd4WUjwkojiTBrvW+ruCxhOTDezxe/+MXu3/7bf9uyoyVqcUdHhNdPhHgG1MVLmKX2m1Tue4zba0gXUwhh35ijNtKSpyQloRpT9AXrl7vc2kGEX3zxxV6rMWwIeAMYFYT3hhtuaElZekhXPNiaFtZPhHjKlAibtCxj8RMTyeNE+PXXX5+rjjkhLBvEThkiLxYhUhVhPhPkPoXHmuF1vT4Rfuihh3rNoCa0RNgaRoT/+q//ujvzzDPbZyJWHBGeHhHiGWACGXaU5bZhFZtUbj1GlMdYlhBC+GNyJcGR52He6kdtThMg83vW1DpCELmny22u6ccsN/PWKW5njTkkY+kZLR7MRS9ObP3q4/9/mYgQzxgXrNiK+jotMcWcxIxfffXVuWphF8KyUQlSP/vZz9r8lUXNu9WXEHkNwl/Wp/XD+1FjzG0+K2w6CK92lY4vFBdmGYsTR4RnQ4R4xrhoXbwmk0klw9AO167ThW2yc4W5Tew4hHFhbrKIlSYSQnO3zwQl60dZ4NYO7nIbAxYxj9o01wwGg/iv0iSW8MaNG5tbmghXjktEeDZEiHvExWwSs4o1CyDEXE7c1JIyEjsOYVwQOvOSCIJYcVHbWPcF8bN22AgQYolbvGqTPe6ngZwWFrDyJO0quab1RbD5CLMlQtwj5Waq9nDl5pl0d5n4iR2HMA7KU2XuVha1rls1Z1mJfVBeNZt2GwNhLZbxesJbBNYGw/8Py5cFLB7MImYFp0lHf0SIB8DkrUlgF1oXvAkmBmSnG0IYDzbHanoJsaxhoSXzlyD3ic06rxrL+JlnnlnX8atiwTKyzz777O7GG2/srr/++nZ/Mh4c+iFCPACE2EXOMub6MSEIcVnFduHGLBMyQggrhwuY9UmAzVO3ddiLOWv0gde2XhDgN954o7mobeBXE9by723+HdpPeLmhr7jiinaAQ/U9iAj3S4R4YIiyXTVBNgnstk0ELiiupxDCeCDI5qVNNCFjIVdJUx8QfJt2FrrXBUt9NV40pUkO8Se+MqIJcXXJshb19f8S/kiEeEBMKhe93bWYMTE2Geyy7b6JsYlRO+5kVYcwLOal05AkTtWJQ2K3fbmoy5tmPbBO2BhoElTnoO9pjSDYxNumgRWvNGnTpk1tEGEbirKCI8LDECEeESaXCS0zk2V8zDHHtAmihMIEswiYbCGEYSHAxM0wV/3cJwSzhPgXv/hFyy1RZrVrOKsE2/sjwI4tZAlLzCLADAD/D2FYIsQjws7VpDE5ZDISYhOOG4oYm2youuMQwjCYq0SQN0tykzlL9PqyKG3Yiau1gTXMeyZu7D68F5a6hDI10N6jPtEO8XeCkuYkyYoeDxHikWJCmyQsYpnVJjrXEgE24VLiFMJwVDIlIRZSsoEmjn7uE0laXMrWgy1btuzIKyHCXOcSsEqAlSU5Z5kAe79xQ4+HCPEIsZslwiaLBK6TTjqpuauJMve0mFCEOIThYA2zPomgDbL5KW5cLmpzuA+sE17XeqCcaevWre09eR9EWBz46quvboc2WEesJxHh8REhHjkmdI2a7Dr7iEuZTHbmqy1fCCFMB/PS5li4iKVZ87IymvvA6xFimwPWuZIk7me9oi+66KLuuOOOa++rkrH62iSElVNC/JE/LOgJOo4YX49Rx7Pddddd3fe///3uscceay6pig2FEPqjNskE7z/+x//YGmOwkKslZl9s27ate+KJJ5prmnvce5CMpSyp3mMYL++890GHtFjEI6cmk2FnKx5l9yupS0mCiW9HbHceQugPG2TuXu5gc9NcNDf7xHsoN7n1gHXuPah3jgiPn7im5wwuL4kYXE0SL2RWm3Qmm92wnXEIoV/MS+5pODKRJdonFRe2LhhCWBHh+SFCPGdMWsUEWbKGWztyMeTaCXvMLjltMkOYPeakPA0xWHOQEHqsryxqr2UzYF1wa3gszAcR4jnHxCPAagUdrVjHK2oAou5YsX8IYbbUfCPGRFiFg3nYt4s6zCcR4jnHDpxVbOdNkA0uKQuBWFXdwg45zUBCmD7mFBF2a06aZwRZDgdYqCHsjQjxglCuKYIsRiR2rMzJLaGuEgu79vSsDmE2EGMNd1Q2iBXLXDYvhYpC2BsR4gWBEJd1zAKWuME61pHLIkCgPe4+d7a6wwhyCNOlXNQqGISLKl+jWmCGsCcixAuKSU9wia9yhlNOOWVHqRP3maPTNIl3P67qEKaLTTEBtuElwnI3IsRhb0SIFxSTnnUsXmwh4CZjIbOUPcdNzUqWUFJHuJUgR5hDWD/mEeuYZVzlTDbHEeSwKxHiJUKsihgrrxC70hTeIkGs7dyVOnGtxWUdwvoRLzanbISr2YeGG0ncCrsSIV4iuMosCNzTRFgDeAsDi7iaEdSO3W6+HgshrA7zR+iHRSw8RHzd2vjWHItlHIoI8ZJSiV0sZIKsMbzBWmYhW0TSvzqE9cPb9NZbb7VNsEoG887m1xwMARHiJcQCYIdeDQecdyyZxOHh6o49r9xJGYYFo3bwcVmHsDpYxuaS9rPml6TJavZhXoWAEuKcvrTEEFjxrPfee6/1qn7ttde6F198sXv55Ze7N998sz323HPPdc8//3z7vRDCyrCp5Y42vvrVr3Zf+9rXWm2/Wv9KkgyhTl+KEIcdlCiziJ9++unuqaee6m677bbulltu2VHyBLe5bELYmYr/GtzQZ5xxRhtXXHFFG8oIdd3yXAiIEIfdYCFrSPCb3/ymxbYM1rDxxhtvNDfb66+/3iznd999t/1uErtC6Fp+BetXuEc8uLrbcUtLkDS4ppUOJns6FBHisEdcDjVKmA2Hjz/88MPdAw880N1///1NjMXAPBfCsqNUacOGDd3555/fbdy4sd2yfj1OeI2ylkMoIsRhRRBjlwhLeMuWLS2G/MILLzQL+ec///mOoWPXO++808Q5hEVFopVBYLma6wxg1rAa/arT18iDlWyEsDcixGHFuESUYhiElltaMtfWrVubKD/55JPds88+273yyivt8RAWlepKd9JJJzWr98wzz9xReVCiLBnLYP2mVCl8GBHisCYkdBFk1q8zj1nGr776ahNht1zWTqAxWMluc4mFeUUzDoMFTGiV/Rlq70877bR2W5YxgdY8J4SVEiEOa8LlYpQgy6bWzo8wE2VWsozrGjKvc4mFeYRFS2QlYMl+Puuss5rw6t+uAQ5xJtKsX5nQ4sCxgMNqiBCHqSJpS9mTeLE4sqEG2VASxaVNrHXtkpVNwJNxHcYEMeVaNmQ46z7H5SwD+uSTT97pJDPPl/iGsFYixGGqSOoqC5noEl+ua4OVbCiDEktWBsVtzZIOYSwQXjHf008/fUfJUVnEnqvyozrbm/WbLOiwHiLEYaa4rMptLW5MiFnHhFgGtq5dLGTWsaFJvttKCgthVhBSLmUxXaPEVeyX+5kbuoSY+9mIyznMgghxmDlczwYLedI1XYlcMqwrrlyJXtzbfi+EWeGwkyox0nRDzJe72SDGhLcsYAJdGdAhTJsIcRgM1m+VQBHgl156qbmtq8e1ODNrupqJuC85zMjlGlYC4SxLt5Kp6pb4yngW81X3S5C5n2U+s3xj/Ya+iBCHwSCoBLYEedJK5rLWWpMgG+LJrGa/Y/i3IewLSVQE15DhzNp1S2xZxFVy5Fxu1i9XNeEm4LF+Q19EiMNocAlK9mL5EmMWMevYqAzsEuayjrm8y0qun8PyQXAny4cqiYolXIculCBXD2jiS3j9mxCGJEIcRoXLkKBK7mIplwVcTUHcTt6XjV0HU7CiWdZh+VBqJN4rzlvNNli4xLYynh3Mb1RJEsuXCMcFHYYmQhzmApYua1k5FLHlptbzWly5+l6LLxNjl3L1xt7T/TA/lHuYWJa7ePJ+DRbuRRdd1J199tkt1qvuV99nrmh9nmVFhzBWIsRhLigRrcStiinLri43NhF233OGrGvD7xhlXUeM5wMCy91ssHhZtzUmrVtDnJc1THzreY8TYFZv3M9hzESIw1xSl2vdqjnmzia0rGWjzkyu/tfVUCT1yfMBy1cMl6CycsvSFecluga3s6QrvzdpIReT90MYKxHisBCwcqujV1nCZQGLJxusZkPsuWLQ6prrtpqKGFzgHg/Th8BKqBKjrYYabkt03XqOS5l1yxpW0yvuW60ny+oV6zVYzSHMKxHisDC4hA2iPDkqvlwNRbipS5irTMqtxK96XLmU2zB9ZDSXu5k1a4jlcitLqvJziS+XMwEu9zIBJ+S7jli+YZ6JEIeloeLLZQGX5VxjMrZMhMWb69+wtGuwpvf2s4zvZYIAVrmQUqEa1UTDbcV53Z8cxLasXNZtWb9ud7WQS3BDWEQixGFpmLSWWcmTo2qQy71d2dklzJXsVYlf9XO5vcsNzq29TBBhlir38qSQlkVrlAu5fna/RNYg2P5OCXrVAJf16zYWb1hkIsQhbMcUMAhyWbjlzibMJc5135i0qA1CXGJfgk/cjRJ8j09uCjzmebe1Iahbw++AGNW/rd9dybQtt65/P2nBlpVZ4leu3xr1vOG5+r3J5zxOSAnxZMx28n7FgOtxsV8WcVnP/l4Iy0yEOIQJTAOjRLLEsISvBLLuE1Cua+5pIky8/Vzia5R4e97v1d+ofzuZHFa/U7f19wgo4at/63nDzx+Gf1eWp3/vZyJIHLmLCSthLFdwuY3LnVwiXmLqOb9f/7bczzX8XP9uUrjrvuF9TIq59xTCMvOBEHfd/wdN2L0LEm2nhQAAAABJRU5ErkJggg==;" vertex="1" parent="1">
          <mxGeometry x="760" y="360" width="40" height="40" as="geometry" />
        </mxCell>
        <mxCell id="MonN4UWlxKLjkT3AbChz-30" value="Next App" style="shape=image;verticalLabelPosition=bottom;labelBackgroundColor=default;verticalAlign=top;aspect=fixed;imageAspect=0;image=data:image/png,iVBORw0KGgoAAAANSUhEUgAAAeIAAAHiCAYAAAA06c+jAAAAAXNSR0IArs4c6QAAAARnQU1BAACxjwv8YQUAAAAJcEhZcwAAFiUAABYlAUlSJPAAAG2sSURBVHhe7d3502TVfd/xKyTZEgiEQAix7zsM68CwgxAgqSTLduyqlJJKqvJT/oDk9/wf+SGpcpVdjlKJLbSLRSxCDPu+7zOAGLRgFkmW4iR6HeY76tmYZ+m+93b351116H66n3m66b7nfM53PR/5f3+gCyGEEMIg7Lf9NoQQQggDECEOIYQQBiSu6RDWgGnzL//yL93/+T//p/v973/f/fM///NO47e//W33/vvvt/Huu++24fHf/e53O8ZvfvOb9rjfcf/Xv/5198477+x4zNgVf8PvufW63sOe+MhHPtJ9+tOfbsN9fPKTn+w+9alPdR//+Me7j33sY90nPvGJ9rPf+cxnPtNuPfanf/qn3Uc/+tH2OwcccEAbfs/t/vvv34bf8bzb+nm//fZrI4SwMt5574M5HiEOYTumwv/9v/93xyihNer+pPgS00lhnBTZEtoSZL/jMf9uUrw97vfcLzEuYTZ2xb/zN90a3ueeIL7E0yiILDEmoISWeJY4H3TQQe32T/7kT5pQlxDXv6nhZ6PE3N8g0J6rf+vxPQ1/0yjB9h5rkxDCMhIhDmEXiBpBNIgdISxrtizU+rnGP/3TP3W//OUvu/fee28nAXdbIl7D45Ni72di6raGnyf/za5M/n3jw6YvUTSKEsMSwRJbv0NEd33ebf1OPbfr7xBllnQJ+YEHHtjuuzUmH5u0pg1/K2IclpkIcVgaXOK7CmCNEkiDxUpQJ4X3V7/6VRvlMn777bd3PFYi/POf/7w9t4wQ1BJitwcffHB3yCGHNFe3+x6rn0uYa0xa1jVK/HfdEISwiESIw9JQbtyycgkswSWkJaj181tvvdX94he/2OnfGOVudr8s5knL2XPLCMEsC5dV7bbc10b9XM8bRJs4E+oScD+7rZh0jfo3sZrDIhIhDgvFpMU7afm6rTgsq5VlS3xZsm+++Wb3+uuvt9uybF977bX2c5gdBPdzn/tc99nPfraNww8/vDvyyCPbLcu5rGm3ZT2XhVwWc92PQId5JkIcFgKXr8EiJbQltuU2Nli4BquXINeYdEOzbAm2f+vnMDtYx6zdihm7z23tlvVcSWFuibNRbu5yfVcc2t+KIId5JUIc5pK6XOu2LF/iyZL92c9+1qxclu3LL7/cxtatW7stW7Y08eVu9m/C+CGuJ554YnfCCSd0Rx99dHfUUUd1xx57bHfcccftsKAJcsWU699M3oYwZiLEYa6obOYq72G5SpwS0yW+bsvCnXRBVwzYz0SYaOeSnw+IKfd0WcBGuawr8ctzBPmwww5rFrPh9zxX8eVYzGGsRIjDXFHiKo67bdu2ZuW+8sor3TPPPNM98sgj3auvvrrDTV2jYsWTj4X5okS0bne9L9Z81llndaeddlqzlI855phmLR9xxBE74st+vyzmEMZEhDiMDqJZmchEl/iWNcvt/MYbb+z4mTUs7ssaJspiwWH5YBmXm/rQQw/dkY1tEGmjYstlMYs9iy1HnMPQRIjD6FDTS2i5k8V0DZYuy/ell17qXnjhheaarrhwNb2QqOXnsHywdqtxCWGthiNc0izk448/vt1WbNmQqU2Q/U4IQxIhDoNBSAkoy1dcl4VbJUVivVzPXNB136hELHHeEPYFgS6L2BBDZjVP/syCFm8myjK2Wcol5CH0QYQ4DEY1xuBaluHM2hXrff7551u2M8H1O0TXbQ1u61yuYSWIH1frzl0HEZaBLSP79NNPb7d+9ng1HwmhDyLEYea4tAzu5KrRrfguC5jVy9IV4yXG3NCsYM+FMCtYwNzTSqKIsASvyryuOHPVKbOSjUoQC2GaRIjDzKlYbtX1vvjii83qFfMV/yXI1SJSSRKxZvWyfkOYFSxlVi+BrcYiLGECLaZMnE866aQ2Pv/5zzeRrj7YEeMwTSLEYaq4jMR9uZOr1lfilcHiNSRbEWIiTJjTwSqMCcJcCV0nn3xyE2Iua1nZsq5ZyRVL5uIWS44wh/UQIQ5ThQgTYFZuZTo//fTTbXis3NIGATb8mxDGAqu32m0ahJcLm7uaMJ9yyilNpLm0CTNB9m9CWCsR4rAuuJwrmYp7Wc2vmK9EK5bvc8891z366KOt2YbfIbq51MK8UR28JHVpHEKQtdzksibQnufmNqqEKoSVEiEO64JFK+tZslVZwAS4Yr8GYTaItnhxCPMGFzSBVeZEeMWRDVYx17WYsmQvwlytN0NYKRHisCpYtEaVEhHhivs+9dRTbXBDE+QQFh2x47PPPrs744wzmrVc8WQ1yqzjiiHHQg4fRoQ4rAqWrcYaLF4nGlXCFVc0Ua4hOSuERYflW+VOhszqSvSSde22Wm0moSvsjQhx2CsuCa5kt2UJq/OV8fzQQw91999/f7OE9X4WGw5h2RFHFjuW0HXJJZd0F1100Y6jG6tbV5U/RZhDESEOu1HCq5ZXUw0WLnezrlcabWhBSXxZwu4T4dT8hvBBLLniyMSXCNcpUARaLNlzLGQx5whyQIQ47AYruPo/a77B6v32t7/dhqYbcLnUJZNLJ4Q/UsLqlgVczUCuvPLK7qqrrmpxZC5rJVJpDhIQIQ47RJX4snDFgMV/JVxVN6wnn3yye+KJJ5qlHEJYGURWHNkQM664sVOgymVdp0CpRw7LSYQ4NBFWWsQNre6X6N5zzz3dgw8+2ITZqCzpXCYhrA5Wr8EVbXBTE+Jzzjmn27hxY8u2Js5c2mE5iRAvMTpgyW4W962D9eu8XwlZ7vsdI4QwHVi/DpQgxtXP2q06ZGVPnqsWmmE5iBAvMZpwEFsW8AMPPNCSsbiilSiJBUvWShOOEKaLuDHLWGKXQybEkHXqUot87rnntluPcVmH5SBCvEQQV4PQViesKkciwtUNK4cwhNAfelkTXhaysieiLLuau5oYq1Mut3ZYTCLES4QkLEMN8L333ttc0CxgMWAZ0kRa32hWcAihH9QXs4y5ormklTeddtppzTK+4IILuvPPP7/VJxvJsF5MIsQLiq+zWlGKA7N0ZUIbDmCQiFV1wFzQIYRxQJBZw+qON2zY0IbsakN8WQY26zilT4tDhHhBYdWycomwsiNx4OoDzSomwJKwCHUs4BDGgxgyy5gFLJNa8har2Dj11FOb+5oYizET4zD/RIgXBF+fwbXMxazbFYtXJjQL2FGEYsFGumCFMD8QWyJ83nnntQMmHMOoBEr8mFhza+c85PkmQrwgsGqJsAP3JWGJ/3I/P/zwwzsdxGAkCzqE+YH7mega2mUaxFiGtbInosxCDvNLhHjOIapiwTKdNeSQfMUF/dhjj3U//elP28EMIYTFoJK2iPCll17a4sfc1bKuxZYdvZjY8fwRIZ5zxHkrEYv1S4SVIRlEWaOOEMJiUPXHSppYxpqB1FnIhraZdQ5ymB8ixHNGfU2VEc3lXHHgm2++uZUmeYyLOoSw2LCElTqJITtUQgxZgpfaZElfiR3PBxHiOYMAGyxefaElX7l1SpLBAq6uWCGExYabWt1xNQRhIRNj1rHYsVOf4qoePxHiOaG+HickEdr77ruvu+2229rt448/3kqSQgjLDXf19ddf311zzTUtjnzmmWc2y9iIGI+XCPEc4KsRBzbUAasL1pKSJcwtrV2lmuEQwnIje1qdsVGxY1ayoczJiCCPjwjxHOCrqa5Y3//+97ubbrqpe+ONN5p1rGRJ5nS+vhACkRUX3n///Zv4yqi+7rrr2jj44INbZ640ARkfEeIR4qtQFyzOS3CrJMmo5hySsfxOvrYQwq7IrhY7dqwiy9iQ1MVC9pia5GRWj4cI8Qhh4RJhzTfEgNUCa87hqEIds8SIYwWHEPZGWcaGciYu6WuvvbZZxuecc06LHUv0CuMgQjwiZENzN4sFVzZ09YiurOj0hQ4hrAUCLIHLrcxqB0tI7iLIkrnish6OCPGIIMJqgLWnFAu+/fbb29nBHmMFG/maQghrgeBK5nLeMVf1xRdf3F1++eWt7ImbOjXHwxEhHhgfO4HlhlYDzBKWFX3XXXc1VzRxNkIIYRqoLdaBi1XsvGOi7MhFsWMu7MSO+ydCPCA+crFe5UfPPvtsS8LSH9otS1jvaM/HHR1CmBbEVl9qGdQyqZ3q9KUvfamJMjH2eOiXCPEAEFdD5nO5omVDa0/JCmYVhxBCH8ikvuGGG7pLLrmklTtxVXNjK4EK/RAhHgA9omVFs4JlRLOAJWS98sorzRJOn+gQQl+wgI866qgmyJs2beouvPDCFkcmyKEfIsQ9Un2iWcHc0azfO+64ox1Z6AxhrugQQhgC/aodrSiJi5vamccsY0M5VLKqZ0eEuEdYugYBvvvuu3eUJekT7fEc1BBCGIoDDjigibGyJiVONQiyBiFG2mPOhghxD2hDabz22mvt1CTHFX7nO99pVrAD/T0XQghjgCDrVa3ph8Mjrrrqqna0osQuJU6xjKdPhHjGSMrSplJpki5Zmzdvbgc2SNBSslS9okMIYQywfA855JDusMMO29EWc+PGjW0451gSV8R4ukSIZ4SPs/pFqwvWIet73/te993vfjcnJYUQRo9uW6xgovyXf/mXbUjq0qeaWEeMp0eEeAawcDXhcFqSGLCyJEPLSpnSsqZDCGHMiAerNza4qasblzInsWTZ1gQ5rJ8I8ZTxMRJi/aJlROuQxR1t5LSkEMK8QZBrsIq/8Y1vNGHWnSu1xtOhhPij/+UPtHthTRBfpUlKkGRD33vvva1LljphCVqEOSIcQphHrF0Gd7XcFqfAWe+gJWbaYq6Pf/7dBwm7sYjXiYtSPHjr1q3dbbfd1ixhsWGJWRKy6qINIYR5heBqkSlxy5GKXNV6VutfHdZOLOJ1whImtGqBNea45557mjXsvmxplnCyokMIi0AloMKtfJdyW4sXO/s4rJ5YxOuECDs9iTva0YUadbz00kvd66+/3i7S1AiHEBYNVrH4sASuK664Ykc3ruOPP377b4TVEIt4jRDZX//6160ph4xo8WDWMEHWL1qJUizhEMIiItTGAGEhMzash2w5Q1lTJXGxlMO+iUW8RrSk/OUvf9nc0GqDifFbb73VXNGJCYcQlgGWsV7UxxxzTGuH6cAIFvKGDRuaIKfWeGXEIl4lRLZqhInvT37yk5aYpUZYJqGdYSzhEMIywODgGWQdWxetj+qOCTTqNpbxh1MWcYR4hXA5Oz2JG/of/uEf2q14sAsxToUQwjJi7bMG6p1PkIkzEdYmkwgrewp7J0K8Qli6LjRnBitLYgXfeuutrXOW7MGIcAhhWRErJsBlGbtlGdcRiu4jlvGeiRCvACIr9qtEiQD/4z/+Y2vU4UxhAh1CCOGDtdKaWJaxXBolTeqMK2YcMd6dJGt9CD4SMRAXlhjw888/3xKzCLFErRBCCLtDfCVwnXjiid0NN9zQ3Xjjjc1Nfeihh7ajFMPOJFnrQ5B0pRTJOcL6Rn/7299ujTpYwsmKDiGEvcNdLVYsgYvhouGHwyLcxiremVjEe8BHQYTFOVjC2lRKzGIJc7eEEELYN5K0jjzyyDYcGPFXf/VXzTIWM/ZcBPkDYhHvAdYuS1hi1u23397OEdaoQ51wSpNCCGHlMGyqLaaYsfX1oIMOan2rCXHEOBbxbvgYuFNeeOGFdpj/N7/5ze5//a//tf3ZEEIIa+Goo45qRyd++ctf7v7Vv/pX3XHHHdcs48SMYxHvhF2bGmEiLCZ8880377CEQwghrB2Wr3gxl7QEWJaxVpgSu5bdMi6LOH3I/gAhlohFfNUIiwmLD4cQQlgfOg9qfvTwww93P/zhD7vNmze3klCinJDfByy1RUyAHXbt1CR1wuLC3NKOMcwFEkII06EioBUztr4aXNQHHHBAe2wZLeNYxH/ARSE56+mnn+5uueWWViusY1YIIYTpwjLesmVL69X/ox/9qB0dyxNJkJc9VWkpLWICrHc00XWMIWuY28RFkjrhEEKYPsRWjTHhtQb7uRK2ZFJri7lsLLVFrCZYItbjjz/erGAH+ztfOIQQwmzRBlOzpEceeaTFjOXl+HmZWSohZu1q1kF0WcKOMnSQg4vAxRFCCGG2WIeVilaC7IMPPtg6F2qi9Ktf/Wr7by0XSyXE3CEKy3353/rWt1qcQmJWCCGEfmEUWX+txwwjQ3b1MrIUQiwuQYR/9rOfdY8++mj3wAMPNLeIGLFYcQghhH5RW1ylTSxiZ7wTZR5Kjy8TSyHEZQmLCbOEuaRzilIIIQwPN7UT7u67774mxm6XLWa80EIsK88gurpmsYKlzNt1LduOK4QQxghDSYMPMWKlTcSYt5LxJLF2GUqbFl6IuaV9wTKj77333uaetgPzeAghhHFAdK3VykklcOnvoM/DMjRXWlghJsIyoX2RLGBds8Qh9JT2hS/DlxtCCPMCy1gvB55LfR2qt4OkLvHkRbaMF1aIpcgTYH2juTocbfj222+nYUcIIYwYPajl81i7ZVKLHzOgFnntXjghtmuqOjV9o7/zne90999/fwv+iznEJR1CCOOFEDt05wc/+EEzorio1RwvslW8cELMvSHOwBUtzuA+93QEOIQQ5gfhQ8aUc+FZxvJ7hBsXcS1fSCF+9tlnmxCrF44QhxDC/MH6LSFmGS9you3CCDEBVhjui5MCX7VoOdkjhBDmE2s34VXO5IQ8a7ujaxdtXV8oISa8gvy+rIoLR4RDCGG+efnll1tLYuFGSbeLVvUy90IsMUtzjq1btzYr+Mc//nHLspPyngzpEEKYf1jBKl94PImx8OMiNWWaeyGWYWeHZMckoG/X5H4IIYTFQJKWzGkZ1Loj6glBnBeFuRVicQPuaK3RuKL1j5by7pxhAf0QQgiLQa33TmvS6INVbL2XF7QI6/1cCzH3s84rMqQdMJ3D/UMIYXHR2MMZ8ipiykW9CJbx3Aqx5hwOcuCiMMSFuahDCCEsJtoTE2NZ1BJyeUMl5XJda/gxr8ytEHNBO8RBXJhVzD0xz19ECCGElVHrvwMi9Ipwwh6RnlfmToh92D50GXRiBcqVxIklbeUghxBCWHzee++9pgHOE6AB4sUsZSHLeSxZnTsh/tWvftUy57ijffjKlpKcFUIIywejjGV82223tWoZCV3zWLY6N0I8mTXnmCzjpZdeau0r59klEUIIYW3IFVJbTIy5qOe1amZuhFgwXq9RH3od6JDkrBBCWF7kBRFjZUy8pJo6MdbmjdELMX+/QXSVJ0ld37x5c4sN+AJCCCEsJ9zQ4sWMNNpQrY0JNC/qvDB6IfZBcz0rVbr11lubS9oHH0IIIUBPCSVNPKW8puLFjLd5SdyaCyH2IasT1kf60UcfXageoyGEENYHjSC+6op5S+UPSeyNEE8BH6KsaIF4Hy7fPxGeJ5dDCCGEfiDIvKbf+ta3WsyYXkjyHbsgj16I+ftLiMUBfLA5VSmEEMKuEGJe05tuummH9zRCvEY05qjkrEpN52oQK54XV0MIIYR+oQ90Qv9p4UydFzX+GLvxNkoh5nqufqK6phBi/n/ds0IIIYQ9QYjpRyVv3Xnnne127O2PRyfEtaPhiv7e977XhNjuZh7cCyGEEIalxFhtsTbITmiSa8TLOlbLeFRC7APklrabkf32zW9+swXcc5hDCCGElUJH3nzzzaYfWiKzinVhjBCvAIIrM9oHp26Yb3+easFCCCEMD81g0NEPWqLjlphxVd2MTVNGJcQ+OP1CBdi5EkIIIYT1wKDTg4J1TJjHeFLfKIS4gutcB2LDdi/8+yGEEMJ6oCu8rGLFkn79PLbE31EIMZe046yUK0nOeuCBB+aycXcIIYRxIdFXwi/LWLMPruqxndA0uBCXL1/jDucL8+NXn9AQQghhPTD0CK9wpyRgOsPwG5OLelAhrixpu5U6VSmWcAghhGkji5q3VUkT76te1GNxUQ8qxBUbdpizDlo+oG3btm1/NoQQQpgOrGDWsDwk7mnCTH/GwKBC7DhDbmgfjDov1nCOOAwhhDArGH6OS9SLeiwh0MGEmFtaTRcB5pbWS9oOZWxB9BBCCIuD9sm8r8qZ3B9DXfEgQqy7iTaWErTUDN99993tZKUQQghhlrz//vtNe7in9a0QL2YUDskgQmwHQojVCt9zzz0R4hBCCL0g/EmIVegQYmVNQ4dEBxFiQXP1whK0ZK7JnB5by7EQQgiLCb2hQ8qZ7r///mYIDqlDgwgxvzz/PCFWuhRCCCH0CSEWK3bMrvykIWPFvQqxDiey1PjkdTiRSv7OO+9sfzaEEELoBzXExJibWtKwhOGhDMNehVjNFmtYyZLUcb0/I8QhhBD6RtKwxC3lTOLF+lET5iHoVYj9T/qf9T+tcYcA+VjPhwwhhLC4cENzR7OCGYXc1HpZaInp8T7pVYiJL5e0TDU7kRBCCGFIGITCpNpf6ketomchhbhOv/A/qXkH13Qad4QQQhgasWJGIl2Sv6Sstu+64l6E2P+U/znBcK7p2nWEEEIIQ1J9LSQSV8tlZxb3yUf+Xw/52vzvBPh73/te9w//8A9p3hFC6I1PfvKTbfzpn/5pGx/72Mfa+OhHP9rtt99+bUxiSVRTashhsVCzmgwJp7x5yW1ZPA4++ODukksu6TZt2tRdffXV3ZVXXrnH62OavPPeByHaXoT4xz/+cXfLLbe0Yw7vu+++nDUcQuiNY445pjv22GO7z3/+891hhx3WFtwDDzyw23///XcI8ySWROE0Q/zQUO0hu5brkmdv6E5MYfp84hOf6I444oju5JNP7v71v/7X3V/91V+16+NP/uRPuo985CPbf2u69CLEdo3G//yf/7P7H//jf7SA+JYtW0Zz9FQIYbFgvVg8Lao1TjvttO70009vgnz00Ud3n/3sZ7vPfOYzTYxZyh//+Me3/+sPYAlbowy5LYZsWvWm1jB5LkSZO9Mg2DJtw3xDbF0LNmv/4T/8h+7f//t/364TG7dZWcUzF2IXs/aVxt///d93f/d3f7cjCB63TghhFhDh448/vjvhhBOaZWMcfvjh3ec+97nuoIMO2iG+BNqia+zJNV1GRFnGqjxYwQRYaE0sURmmRhDu9x1TDNOHELsWPv3pT3d/9md/1n31q19tGzgbuV29JtNi5kIsrsKFY3zzm99sYpzmHYuPi3ky9ubnusCLuuTcGjZtrhe39VgIq8H1RVRZLxs3buwuuuiiFu+7+OKLdwiv63C9iBMTZiWYFWrTq9hJPp6LkTH/uF4uvfTSNsSKr7rqqrbBmwUzF2IX5R133NGG05Ucd5iSpcXHYsj1d+ihh7YYnGERdHGXGFusuPJqUasYHBdgufpCWA2f+tSnuhNPPLFZLwSYGB911FHdkUce2a5Jm8NpCLENo+F65eGr+tPqFCiGHOYb14trR17Bv/k3/6b7xje+0daxSWNiWsxciInu3/7t37bhmCmx4cRRFpOyeg2Cyx140kkndYccckgbXD0sFYshCK34G3efUAV3H8+JsjZi7DGXZV2aM7pEwwLB/cxykenKkmER9wE3tY5MDI0f/OAHzUoOiwF39H/6T/+p+8//+T+3sMa0NnOTzEyI7RaJsJjJ3/zN37ShtaUF1nNhsRBzK8ujbi2KBlEui3jSNeg6KIvYKIvYcN0QZqIsOUaOgSx7busQdoX14hqz8RPXu+6661qMWFJWH9g0SuTSMVD4TXWITWa8OvMP4ZWw9e/+3b9r15SMahnU02RmQmyB1aWEBfzf//t/7/7bf/tvzRWZhXQxIbysj4rLnXXWWd0BBxzQFscS3rKWJ6nLzq1rwzXCQraouXZYFo4nkwjDWs4mLuwJ15kwyLnnntsWza985StNnI0+qOuXi/q//tf/2v3v//2/2+Yx+TDzD1f0l7/85TbOP//8do1Z26ZJCfFH/8sfaPemhBif5h0SGB588MEWN4kILx4s3vPOO6+77LLLmivQhSpGJzvV4lj1mdU4YW+jfqcWTztOFztXkLpP8Wbubb/Dck4yTJjEtWIzeOqpp3YXXnhhd8opp7TratouxL3hdSzYrk0Z1FzVLGKWcphvfLeuL/pls8cqnlbSX/HPv/sgXDv16DOXjAxCMROWzZQN7jASLH5f+MIXur/8y7/sbrzxxpYgo06TO5poroZazIh3XfCXX35599d//dft7//5n/95t2HDhva3Q5jENWOzZtMmYct11JcIT2ID6X1widtEhvmHdgmPyYy3ybLB8tgsNG1qQsx1yLUoxsedyCoW6wuLBaE855xzmvXBImaJWATFii2K61kI/TsibtdpMbOwif15HVb3Nddc05155plTdw+F+cX15nrhhXHtDCHCYIW7LiUmzqrUJfQLweXpePPNN5sgy4inb7NIOp6aEHMZSsjimvGGWcWStGIRLxYsYdbqFVdc0UTRzxbBWWBRJfzE3mv+xV/8ResDa7ELAYS4whrEcCi8Dx4bYtxXfDrMHh7e6qymdtztLBLxpibEsl/tHCpOIkbisbBYiNeeccYZrV5TK7i1uKJXA+uCdXzcccc1y1gs+uyzz241frPaAIT5woaNEA6N92AujOG9hOlQFR68u4SYZTxqIZakpeRE9iBLOCwmRFH7QKVKfcZsvS7x5RZXLyqDUW1yCGOB909iT7yAiwdNo22zOsJ33ULsoqv4sDKTxx9/PLHhBYTbj8tNLJglzDKedk3dh8Ey5pKWyCU+TZBlbldsMIShsRZGhBcTvQx4eyUgu0+Mp1lSuW4htgNkuntzmqBr9aaOOCwWRFj8y6jypCFick5D4RpXr0yUJXRJ1gkhhFkhTqxDpPwnoVd6N82krXULsTfjTVYTD280xeyLB6uTK5roEeGhMlSVqHCLy6Z2Mgo3ucdCCGFWKF3S+U+yFo2jd9OMFa9biL1BfnNmO0EOi0klovTZLGFPVGIOt3SdrsNVHkIIs0bXNKW59E5p07RYlxCLh4gNM9m5pSPEiwsBJMJDloighFhZkyYfsqg1UWAVp2wkhDBLJG0RYuW5KoOmlZy3ZiH24t4E8ZVN9thjj+Vw7NAb3OPixcqaLrjggpbApb1mCCHMChbxU0891Vo3S0p2wNE0krbWLMREWBMPQWv1VU8++WTKlkJvyNhWvqSkiVVMiLmrWctDus5DCItLJSWziMWJeYSnkbS1ZiEWG67WX3YGErTSwCP0jfpiWdSE2KETyqqSRR1CmCUEWG6U4f56WZcQS+OOEIchKSF2BGMJcQ6HCCHMEuJL+wYXYoFqDTxkj+XIrzAkXNEEWfLW1Vdf3dzVIYQwKxieXNTGNMp11yXE/OQR4jAGZE1re3nttde2BK4QQpgVxFdu1GBCLEmLC1r2GIvYiBCHoZG8JWv65JNPbodCSOA64ogjkrgVQpg6WlwKyQrP0sL1Jm2tWoilahNiGdKsYTXE0yxsDmEtqCFWzsQtzUV92WWXtfsR4hDCtNFViwbKnNZxa705UqsWYkla6oUNNcTqqJQxhTAkBJcYixWfcsopreuW5C0HRciijiCHEKZFnbHACFU9pPXlepK2Vi3EXow5Pu1emyFMAy5qh0FofXnqqae2QyEcVJEzYkMI04ZhWv2n1xOiXfXqxAQXF5a2zRoOYUxowckqdjAEIdZ1y/0clRhCmDY0UHhW4pZY8VqPwly1EFfTa2I8jfqpEKYN65dlfNppp3Vf+tKX2ilN6UMdQpg2XNMyp3WWFCuWQzVTIa4kLS+mbMmRh8zyEMaGeDAL2GEQGn1o+OG+lpixjEMI00L2NNc0q7h6T68le3rFQiweLDlLYNqLihN7EyGMEWJ84IEHdkceeWQT4ksvvbSVNqX9ZQhhWkhUZhXLoCbEJcarZcVCzPplDUvSqtqptLQMY4UQ77///q3lpSzqTZs2NVe1+DE3dbKoQwjrhaeYQSp3iggzVNcSsl2xEHsh7mgvNo3TJkLoC1YxF/VZZ53VXNRKmhIzDiFMC0apkl4auZbs6RULsT9eQhxLOMwThx12WHfOOed0Z555Zqst9rPzjEMIYRrQRNpII9fS8nLFQiw+rFaKazpCHOYJWdTGMccc011xxRWtJzUXdQghTAOaSBvlTwnbcllr+rFSVuWa9iIR4jBviAerL+aWLiHmnvZ4YsUhhPVCE8WHX3755e7tt99edRnTPoXYC1QbL72l3UaIwzyiw5aDISRvbdy4sR0OQZBDCGE9yJ5mCStlktQslLuazpMrFmKWMCGWMR0hDvOILOrDDz98JyFWWxxCCOtBAjNLmD6WENPJlVrFHyrE/khZw17Ei/F7r6VzSAhDww0tVixZywlNhvaXzjJOFnUIYT3UEcGEWNKWvKqVsk+LmBBTeX+U3zuEeefQQw9tIixWTIglbmmJGUII64GLWnMP+VSM16lZxJUt7Y/nuMOwCLB+WcGStxwKcf7557dTmkIIYT0wVtUTV9LWStmnReyPUXfmdizisAiUi1riltaXV155ZXfEEUdsfzaEENYGY5UQOxSpTmNaCfu0iBUpP/XUUy0bLB21wqJAjFnFJ5xwQuu45cjEY489NvXFIYQ1U0IssZkXeaU5VfsUYvHhRx55pJ0/HCEOi4QDIMSLjz/++NZ5S8xYIlcIIawFQsx4dUJheZFX0thjj0JMgGV/aV7NvCbGGnrENR0WCU0+lDRxUWt/KVYseYtA57jEEMJqIbp0kzUsrEs31RPvyyreoxD7Y+qg1A7Lml6JaR3CvKLRB9f0hRde2KxjTT7SizqEsFZoJg0V0iXG+7KKP1SI/RG3EeKwyLCAWcKOSTScW+z4xBBCWAs0U8WRemKW8b68yXsVYi5pZUv+WIQ4LDIyqJU0EV/lTDfccEN30kknbX82hBBWBw0VI37++edb8taahZiKl5rvy6wOYZ6RQS0mLGP6jDPOaOVMrOIDDzywuahzMEQIYTXQTHFi2dMEeV8aukchpt5lERPiWMRhGSDGn/nMZ9pxiZK3Lr744tb0g8UcQggrZSox4kkhjms6LAuyqFnFRx55ZLOMCTFRJtCxikMIK2VXIV6Va9o/Viv861//uvm1q19mXNNhmRAvPvHEE5uL2klNXNR6UUeMQwgrgWZWshYtpam0dW9G7R6F+De/+U0rSo5rOiwjLOASYmVNrGSx4rioQwgrgWZOCjFNXbEQU3H/gClNwRUi6xQSIQ7LBMuX6LKCuai/+tWvttOalDmFEMJKoJsGTZWwpSfH3lzUHyrEFHxfvu0QFhFCzDImxF//+tdb+8tPfvKT258NIYSVQVNlUIsZr0iI/VK1tfSPYwmHZYZlLIvawRAafTgcQhZ1LOMQwkpZtUXsl/wy9faPQ1hmCLFELUckStrS7EPsOJZxCGGl8C4T4hVbxOLBkrMc8sAyDmHZ4Z5mAStjIsQsYx24krwVQlgJtNS5DR9WxrSbELOGX3vttabeIYQP+PznP98OhdDow2lNDoog0iGE8GEQYsYtI5fG7ondXNNUW+lSLOIQ/sinPvWpdjCE1pdnn312ixsT4xBC+DCqL8eqk7USIw5hZzT5EBt2TKL6Ym5qiVwhhPBhVNb0PpO1ZEf7hd/97netCLkKkEMIHyAeTIy5qNUUn3POOd2xxx7bxDhnF4cQ9kZZxLR1b705mhCrH/YLlTEtsBzXdAi7w0WthEnS1nnnndfqjD/96U9vfzaEEHaGrooRC/kK/f72t7/dzTLeTYgFlA2/HELYGRnUhx56aIsRa/IheUsWtVKn9KIOIewKLdWbg66WENPcSZoQU2dPsoLdclHvzZcdQuiaS5p7mpv6sMMOa27rlDOFEPYGXWXsclXv1SIWE5bVRYj5sHdV7BDCH+GOnuy25We9qUMIYU8QYhq7VyEmvExm5jMhDiF8OM4uJry6bl1++eXddddd15p+hBDCnhD+pbG0dtd64h1CTKkjxGEeqFNNhuyFXqczEeLLLrus+8IXvtCyqD2eWHEIYVdoK42ltXsVYvFhv8B8DmGsKAF46aWXuldeeWXHxnHIfAalS4cffnjrRS15Sya1n0MIYZKKEQsD79E17UF+ayZzhDiMGddoCbEsRO6eIYVYFrXaYh23CPH5558fIQ4h7IZjhfcpxCxii5yFLYSxwntj0/j66693Dz30UPfoo4+22veh4IbmjnZKE6v4oosuat23/JxGHyGEgrYyHvbpmo5FHMaOa9UF/cYbb3QPPPBAE2NHjA3N/vvvv5MQH3TQQRHiEMIO9hkjZhF7slx9IYwZSVpixc8++2z3+OOPdy+//HLrWjNkW1ZZ1LpucUuffvrpTZCPPPLIJG6FEBolxAxeburJEuEdFnF11YoQhzFTrmDX64svvtg9+eST3XPPPddt3bq1PTYU3pemHuqJddu65pprmmUcIQ4hgLaWEPM87yTElJlSszAqCzWEMUPcavO4ZcuW7v777+/uueeedo72rjvNvqgNguQt9cQSt1jGxx13XOvC5bkQwvJSFjGtdd9aVeznAfFhvyDpJUIc5gmnmtx5553d9773vWYZ23XuGn/pk4997GPd5z73uR1dt2RRO8fY4yGE5WWfQlxibEw+GcLYkUH96quvNhf1M88800qbXOhDwfI94IADus9+9rPdqaee2l1yySWt0Qe3dQhheWEgyGMxaO5kGHg/Pxh81kR4yJrMENaKTeQTTzzR/eQnP2nx4qGRvOWEpquuuqo78cQTYxGHEBo0lt5OJpfuEOIS4SHbBoawVljGXNP33ntvs4pVAUzuOPuGZcxFLXGLZUyUHZ8YQQ5huaGzpbtFE+JdM7hCmDe4eiRuKWd66qmnmijLeRhqYyl5i+hK3jr77LO7P//zP+82btzYGn2EEJYXWstNPdmzowlxXNJh3nFRb9u2rXv++edbvFjHLU0/hvTy1AlN2l9ef/313QUXXNBix8Q5WdQhLCeE2HrFeCj28wAhjks6LALiLg8//HD3rW99q1nHYseu8SGvb7XFEraUMxHjk046qSV0hRCWD8aBdUo4rdhhEcc1HRYBu0wW8Q9/+MMmxFUbP6QQa3d59NFHt5ImQqwVpi5cafYRwvLBLW1NYiQU++nykbKlsGi42Lmpb7755lbWNBmPGQrtLy+88MJWX3zYYYc1FzX3dQhhebA20VzaW0SIw0LC/UOIf/SjH7We1GO4vh2XGCEOYbmxFnFLq+wo9vMAMznJWmGREGpxEMTTTz/dsqgNyVtDWsZEl/hqe3nFFVd0F198cUveCiEsD9YmYjy5FjUhFjhmLoewKJQQc0sTY3FjZxgPLcSORpS4deWVV7auWxHiEJaLPQpxkrXCosLL4/rmor711lu7Rx55pJ1d7LEhrnfJWYbkLQ0+JG9p9kGYJW+FEBafPQqxB1jDKV8Ki8oLL7zQff/732+nNLGShw7FKF1yVrHsaZ231BkrcQohLD60lubS3qId+sBCSIw4LCqSEQmw84tZxW4na/j6pmLFsqg3bNjQnXfeeXFRh7AkEGHh4J3KlzwQIQ7LgBjx3Xff3bpuTZYODMUhhxzSjknU+lJf6hDC4kOIkzUdlhZWsSYfTml65ZVXdsSLh+KTn/xkd8QRRzTXNBe1zlvEOYSwuJQQv/fee9sf+YMQM48JsSdDWGScUyxeLIP6scceay7qycnQN/pN60XNGr700ku7G264oTv++OO3PxtCWETKNb2bEKd8KSwDrnNWMAF+4IEHmhizkoeqGpBBLV78mc98pp3QRIwlcDkucf/999/+WyGERaKEeDJPZT9+ag9EiMOy8LOf/azFin/60592r776atuZTmYw9o3ELS5q5UznnHNOG4kZh7CY2PQrXeKJLvazCEWIwzLhIAidtmRQa38piWsyg7FvPv7xj7fYsHpisWIJXDKqQwiLR/U32MkijhCHZeXnP/95t3nz5u6uu+5q7S+HRvIW1/SmTZvaaU0hhMWD1tLcncqXKkacrOmwbPzyl7/sHnrooe6ee+7pXnvttcHL+LS/lKzFItaP+sADD2yP5bjEEBYHawy39E4WMX+1Th/prBWWDcK7bdu2lrwlcauSt4aisqgPPvjgJsZ/8Rd/0VzVOaEphMWh9HYyQbQJcYlxCMuEXSnhfemll1p9MSHmrh5qLrB8CbF2l7pt/dmf/VkTYo/FKg5hMSgR3kmIt9+GsLTosqXb1p133tmSuIjzkMlbLGDnFcui1uTjjDPOaGcZS+oKISweEeKw9BBi1vAdd9zRjkxkFU/Gb/qmhNjJTISYVUyIP/axj23/jRDCItEOfVDTNGkmh7BMcBWpIybILGI1xuqLhwzZiBcTXsclXnXVVU2QHZVIpOOmDmF+sa7sVkds5++BZE2HZcdcIMS3335760U9pBCD4BLia6+9tlnFhJg4R4hDmF/2mDVNmYdq8RfCmDAP3nzzzdbk45lnnmmDm3qouUFwnV2syxY39SWXXNLqjNP+MoT5xXpiraG9RRNiBcYR4rDsmAdqi1nDLGM1xrpuDTk3JGgRXgJ83XXXdeeee26rLw4hzCfWE2vNTkLsQWNIF1wIY8A8UFvslCZWsY5brGItMbmShhBksWJxYclaRPiss85qrTAdDKGsKYQwX6R8KYQVwG303HPPdbfcckvLpnZIhMNRhhDiwglNJ510UitlEi8+5phj4qIOYUGIEIewC5IpuKg1+igXtSxq1vJQniMnNDkYQgtMzT7EjOOiDmExiBCHsBdYwFzU3/3ud5tlLMuREA8ZxuGivvjii7sNGza0DlwhhPlnPzEoIyURIeyOwyDuu+++7sknn2yJW2qNhyz104eaNcxFfeKJJ7bjEp3aFEKYD2itvI/JBj37SfjwADEOIfwRli8r+Be/+EX3wgsvdPfff3/3/PPPD9p1q7Koq75Ysw9WcghhPqC3Ns9KE4v9HLNGjCPEIexOZVGLFxNiWdR+Vn4whIvaTlq8+KijjuouvfTSNpxd7DHPhRDGTc3hyWTL/agydc4kDmHvcEtv3ry5JW69/PLLzUom0kOhy5bMaQdDGCzkxIxDGD+MXp6tyfLD/agydZ70V4cQdkbHLSLslCbuaecYDynE5u2RRx7ZnXzyya0PtdKmCHEI44cQ09vJ09TS0COEVbB169bWi/ree+/d0f5yyLlTZxdv2rQpseIQ5gDrRelu0YQ4IhzCypBFTYi5qQmxDOoh548sah23IsQhzA8lxkXL0PJgxDiEfcMd/fbbb7c4seStRx55pDX/GAouLm7qI444oonxDTfc0OLFIYRxUuVLO7mmt9+GEFaARu1qiR0Mob5Y3Fji1lCY0JItWcMyqL/85S+3eHEIYZxUstZOQmwSJ1krhJVRLiVW8BNPPNEsYqVNxHjyoO8+scM2j2VROxRCApf7Sd4KYXzYPMuYNmeL/ZRBpHwphNWhlvjpp59uQqzZh4Mh3n///e3P9o9+ANzTum45MpFV7KCIdMwLYVzQWsbvTkKc8qUQVo8Tmt57772WvMU9LV78xhtvtMcnkzD6gruLGBNf5UyXXXZZOy4xQhzCuKC1+nccdNBB2x/5w/xNQ48Q1g4XtVjxbbfd1lzUkrl03RoKm2p9qK+77rrWizpCHMK4EBvmiZ4MHe0Q4ljEIaye3/zmN92WLVuam1r7S2LMbT0U5vHnPve5HQdDnH322S2RKxvtEMaBOcoTPXmM6Y4YcYQ4hNXD+hUb1nlL8hbrmIt6KFjAXNR2245K/OpXv9qdeeaZO7XTCyEMB63dLUZMiKlzhDiE1SMerKTpV7/6VbOIH3jggVZjrMRpiBaYhLh23BK2rrzyyibEhx12WItL5XCXEIbFHNwta5p5HCEOYX1wUXNLE2JnFxNjjT+GapRjsnNRE2EuaglcXNSxjEMYlhLiybmYGHEIU4BVrITp2WefbS7qxx57rP08VAtMljH3tHpi8WJuasclcluHEIZDvoaErcm5uJ8HiHCyK0NYP5p6OKHppptu6h5//PFmKStpGrKFLAFWzuS4xEl3WAihf1jEdHcni9gPHkzsKIT1Q4hlUN96663dU0891cqbiPGQQqzRx4UXXtiE+JBDDmlinCzqEIahXNMStooIcQhThjuaIOu4dccdd3Qvvvhis4qHwoTnphYnvv7667uLLroo7S9DGAibYG7pnZK1IsQhTA+W76QQ33nnne1WDHkoq7jKmVjEX/ziF5t1nPaXIQwDId6tfKmypolxCGE6KGtST/zwww+3xC1uaslbBHkoiK8DIWRR60d91FFHtbkfQugPWrtbi0s/eDBZ0yFMD1bxpBCLGxPiIV3UBx98cBNiLmqZ1BHiEPpnj0LsAWZyhDiE6UKMCa+aYi5qguy4RI0+hjoYwjxXT7xx48bu3HPPbVZyCKE/uKZtgDXTKtrpS8miDGF2vPLKK93tt9/eypp+/vOftyxqIj0UGn1cfPHF3QUXXNCyqEMI/WEzTHN3EmLWsIStJGuFMBuqF7WkLecXy6L+9a9/vf3Z/rEIEGMtMFnFZ511VgQ5hJ6gtdzTdLdoWdMUOkIcwmzgnia8LOPNmze3Fpjvvvvu9mf7xyJgN67r1qZNm7pLL720O/zww7c/G0KYJbSWB3oyHNyE2IhrOoTZIB7slCZWsTixFphEmZt6iIMhKlb82c9+tlnDXNTOLvbzZElFCGF6KBeksyXCk5VK+6kx9EAs4hBmS53QpPVliTG39VCwimVR60OtpOm4447bKZMzhDA9CHC5pN3uZhETY7Fit7GMQ5gNkrRkTYsV33///c063rZtW6stHiKL2nwXGz722GPbKU3nnHNOs4pDCNOH+KpSkiBt7tHeoiVrcUdp7KH7jl8IIcwO9cVaXyppYhW/9957g9YXm/tEWKz4yCOP3P5oCGGa0FobXyWDVTZctNOXPMAlFSEOYfY4p5iLmkXs9rXXXmtiPBR26Mcff3wTY5nU6ownSytCCOuHzhJhOus+7S3244pmIhNivzSp0iGE2eFkpoceeqhlUnNRD4U1gPASYIlb1157bRPmEML0YOTqbmeuTcaHsZ8kLUJMpZnNEeIQ+kHyFqv4wQcfbFaxgyJkV/cNITbvxYfPPvvs7sorr2xZ1B7bdcEIIawN84mxy+jdTYj9h4lMiA899NCUL4TQE5K3CPCzzz7belE/99xzzW09FHbsErfOO++8lkVNjG3OU1ERwvohxDR2r0LswRLiWMQh9AMhdhCELGqnM4kXy6qWQT3EkYk8Yw6CUFvsYAgnNFkTxi7EPqshss5DWA201caW1u5RiLmmqvflZAA5hDB7WMHKmX70ox81y/if/umfBmn0URBkZxdff/31TYzHXNLIla9L2dCfWQj7wrxSoUBrd51TuwmxXw4h9AcRKSFmGftZvHgobMYdk0iINfwYsxAr+4oQh3mAttJYVQp7FGJmMqVO1nQI/VOuVV229KFWY/zqq69uf7Z/uKJtzLnRuKkJspjxGNcGGxZ12eLsNjE8Ctz7IYyNsojVEO81RlzlS6kjDmEYHAxBiB2ZqNHHUOiJS4iVWhDiG264oXXeGqMQi7O//vrrTYi1DSXGeniHMDYIMZ3dq0XsQU9S67imQxgGrS4lb7Hqyrp76623BklEqgb1RxxxRDsqUfKWjGpW8pjySHgTxImVgjnvmTfhpZdeGqwULIRdYeja2LKEVyTEiRGHMBzinYT3+eefb5bxww8/3NyuQ2UEE+PDDjusWcOEWLzYOcZjXCN0JnPW8y233NLKwFjKQ7YNDaGwcS1D90OFWEyIS5oQ+0Xp1XFRh9AvrDtW8TvvvNOsYS5qJU1+log0REmTdcCaoKZ448aNLYnLQjI2WL8+p4oX28TwLgzxmYUwSeVbCPWwim1kdy0J3E2I/QO7Xv8ghNA/xJiY/PCHP2xHJko+YuENYRlbGwxu6auuuqp13rJOjBUbFpuY2267rbmoI8RhaGgpz5IcLJtYQszbNEkTYg/yY0vGoNpa3Y1x1xvCMkBwxTwlbBEV1t2WLVsGs4qtDxYRB0KoL+amPvroo9tOf2zYxMg4Vw5mM8NCVt40lHs/BPOEpvIslTW8VyE2+LL9coQ4hOEhurpulWUsq9pjQ4gxj5mQlTixXtQOhyDOY4OLmktajL3Gm2++2f3Lv/zL9t8IoV9oqQ51YsS7xoaLHY7qsopNtsMPPzyu6RAGhuDqRc26Yxmz7sRBhxCV8pixhC+66KJuw4YNbZ2w29/b4jIEPpuKFYuvP/DAA82zwLXvuSE2MWG5IcRc0ysSYphsYsQOB/ePQgjDQTSIytatW1smMKuY23XIrlvWB809ZFI7KpH3bIz1xURXjFisWCkYV7/PLUIc+oZRa9O6px7TxW5CHIs4hPHAHa1BxYsvvtiOSyTI2jkqzRki7ilRi1WsB7V4MTEeY/KWz4ZVLL7Om2Azo6d3aotD37CIK0a8IotYEJkAp9VlCOOCJayc6b777muuVqIyZJ2syorLL7+8u+yyy9rGfWywfCW3qS+2ifnJT37Skre4qEPok0qCpq00dk/s9Ci1LiEeY0ZkCMsK644IP/TQQ63hx7Zt2wZ1UdvhX3jhhd3FF1/cLGS7/r253YbCRoVHgYt68+bNLWYsg5pVHBd1mDXyrggvLaWptHVFFnEJMfWORRzC+OBi/fGPf9yEZcizi1VYyCM55phjuksuuaRZxnJLxgjXvuxpLmpZ6DYxOakpzBIirFSJngr3ypoWwlmRRTzpmqbi/lgIYTzIotZP+d57723tMIfKBCbEFhZCzCrmpibEY1wzCDERNngTlDdFiMOsIcTmCMNWkuOKLeJJFa/saQHmCHII44CAyAAWM5aI5MQhPw+FteKEE05oHbe0v9SBiwUwRsSKv/Od73R33nlnO7HJZzlEKVhYfBi1BNh8YNjauHpsb1q6m0VcQsyUjhCHMC6Ih0QtCVsOOSDEfh4Ka4XMaUIsi/q4445ra8YYIcTf/e53mxCLuYuxp+NWmAU004Z08sSyvbmlsdsz/kDVE5tgVP3D/kAIoT+4oYkHdysh1rDi5ZdfblbxEO5W64VFxq6fGIsVS94aI6xfnxHXtCMT1RcrBQth2pQQmws0dG8u6WKPCkt4WcSE2ASLEIcwLn75y182IdZ1SwKSn4fIorbgWB9Yweecc047GELceMzYxMg+1yBlSG9CWFzMCUJsLqzEmN3js9SbAJcQm2whhPGgBOf9999vsU6iIotaIpeSnSHinqxim3euaV23zj///O6II44Y5drBe8Aafuyxx1ppE2EeshQsLB6ue5tT4V2CvCYh9o+4pk2qWMQhjBeWsAzqOvaPoAwhxDbvaok1+mAZX3PNNW0jP0YhZgWrKSbEOpXZwNjUhDAtJoXY7Zot4vJv+yOxiEMYJxpWOCJRaY7OUeLFQ8Q9rRFySyRvOaFJSZNbG/mxlUI6KrF6eHPvG05oGqptaFg8XO9Klz7/+c+3evs1W8QEmGvJH4kQhzBOiEedNkSMJSFpWDEUqi7ExbimlTMdddRRK7IIhkBDFDF27S+Vg2l/mV7UYRqUEPMQrVmI/RHnj5pAk8XIY5xMISwzLDiZwFzUhLiyqLVyHCKLetKbRojPO++8JsZja38J7miflXgxFzXPgs8thLVS1z+XdOmmzem+jNm9KivR9UclYJx00kntPMUxTqYQwgeiwjV9zz33NGER92QpD9F1y6IjecsJTddff32rL7YYjY1KeOOWVo8t6c39ENaK61xu1QUXXNDEeKXe5L0KsT9AjCPEIYwfcU/1sZKQiIpEJKJCiPsWY2uHtYJVvHHjxu7000/fkT1qcz8Wqq6Yi9rmhRDbwMRFHdaKDahr/ayzzmpu6XULMfwRyRYR4hDmAyIi+eimm25qruqhThqydlSMTDmTLOozzjijZVaPDVaxWmxCzEVtQ+P4xBBWS3mRtX0V1l0pKxJif9SxZxHiEMYNC4+YOBiCEIsdy6zuOxvY2lHHv4kVOxSCELOKWQ0rtRT6QMkXS9jnxaPgYAif2xAbmDDf0EixYQmLrvWVXuf7zL7yx/xRf3xMbqUQwu4QD25qSUdExZGJrD3Z1UNx+OGHdxs2bGiWsdpiFsMYY8Ys4wcffLD79re/3T47m5eUM4XVIJzLE8RwXY33Z59CLHNa1qOdrcnjhca0mw0h/JFJIS7LmIU35AEHFiUiLFYszEWYVWWMDUKs/OuHP/xhE+KKFccyDvuCJtJG3h6aabNJiKdiEfsjxFcdlMkk+cILeLEQwnghutyt6mQlb7GKtXIcwjK2QBnWD4dC6LxlsRobBJdrX0MUmxcZ6OqLYxWHfUEnNe848cQTW14Eq3g1Xp99WsR2roRYshbLOEIcwviREUyI1RU73MARgG+99dYgQmxDL6xFiMWKxyrEBHdXIVZbPETL0DBfEF2eHkLsdupCXJOoYsUs4whxCOOHhUdcNK24/fbbW0mTJCSu6yGsPK4664fkrU2bNrVmH0JeY8NmRd9uHbd4E2xoiHMEOewNossSXut53PsUYi6lXYV4NUofQhiWV155pSVtiX8SYlbfEEIsi9r6odEHF7U2mJJAx4a48KQQ60kdIQ4fRgnxscce27RytexTiAt/nNozuyPEIcwPamLVxnK3qpUVL5aY1DflXSPGGh6cffbZzV2t3nJMawpPAqvYZ+Qzu+uuu1rim+StxIvDnnD9Ct8yVoVyV8uqhFjpQYQ4hPlCxjSLTpzYkYm6SA3ZsILwyqAmxjb3rOJPfOIT258dDwTZZ3brrbd2Tz75ZKvH9pgRwiTCtSXEM3FNF5pXM729mIkjGJ0GHyGMH1YcC49VzD3N3SoJyQH54sV9YyPPapD8KXHLGKOLGlz5rGJ9vDX8EC/m2g8BrmV5DjKm6aNkZiGY1bJiIbZjNVm8mGFXm6StEOYHPZVZdrKouVodncjd2jdc1HJPuKgvuuii7pJLLmmetrHB8uWedqwkIeZNIMos4xBAF4lwhW15jtdSI79iIWb9VrKFlpcaW69F+UMIw8BFzcITIyYqDz/8cBOZIbKoiTGrWLmHWLH2l9aVtSS6zBKeBMIr4e2+++5rGxn12DYwSd4KNFCeg0Y11TFuLR0oVyzEtYtlFTvWzKThrg4hzBeygH/0ox+12KfSpuog1TcsB4uXRcwpTZdeemnb4I8R3gNCzLXPrf/2228PUpMdxgUNlDulEmA1hzzsyqqE2PBiJo6g9BhPUgkhfDhERAtHdcVcruKeQ2RR87JZyLj2xImJsXWFu29s+SfOdtZli0tfspv7cVGHsoiJ8Xqa1KxYiAtJWl7Y5BljpmMIYWVI1iLGDjrQdWsobOh52IixWNtaE176gGX805/+tLn1bWjCcsOrI4H5iCOOWJeHeNVCbNIISkvYEuPxRtbiEw8hDIuSJjFPovL66683C28oF7WF7OSTT24uPnHjMXbcgviw855tYHgSHK4RF/XywWNDC+U0yJsy1mOYrlqIZUoTYC8snkOQYxmHMH+oJdZBSjkTd6t4MXHumwp7WVe0vbzxxhtb+GuM2Ky8+eabzUWtj3e1DQ3LBc8w741NY4nwesIpaxJiOwFJW1zUdrKJFYcwfxAViVvixSxjdbJKnGRQ9920QiKoxc1xiVdffXWzjq0rYyuRlNjGKtboo4R4qM8sDIdNo3AKIaaF6/UMr1qICyY5N5IxxpNUQggrQ6x48+bN3Q9+8IMmxhK3hnC3WsisJTxtSpquuOKKlgQzxtAXK5iLmhhL3CoXtQ1FWHyq9I7nxv31suarxoSxazUixCHML5KOlObUgfhEZYjuUQTXoiYRVPvLK6+8sgkxlx/X9ZggxJXoRoi59EuIx/Zew/QpIWYVDyrE3EZ2rkZc0yHMP1zVYsV33HFHE5eh4I52io2OWxp9CIHxwI3RMibAOpXZyGghGhf1YlPtWcWFtWi1aZxGhv+6hdibSWOPEOYf8U9C7OxinaSGggUsEebiiy9uQmyNGbMQs4wnhTgsLjaJchmU2NE/FUSDCrFJIVPMzsBJKmI63lwIYT7R6lIZUyVuyQyWmDRE+0tibIETg+OiFgKTEDM2bF502vKZyT7n2pe8FRYTZXX0zvWouZXrdBp5AWv+C17cxCDECvEvuOCCVsoUQphPCDGrjgizjImLRh9DWHnWF4ucONw111zT2uqOUYgr89znxTImxjYvYTFhbMpfqCTlaeUErFmIvbhRQWu7hLEW4YcQ9o3YJjHWzpEI33zzze3Wz5K3+o59Wl+UhtT6smHDhhY7HlPfApsUn41Mc0lvMtBZyWExESJhDQudCMlOQ4Sxbpt6Wk2vQwjjgBgT4JtuuqmV6MgQdnLTEC5q8Ti9CtQXOxSCZTzGnJQS5KG6k4V+IMQypSUQTrMN67qFWBaZXWtlUMsiS/JWCPMLUWHdVbOPhx56qGVRD2EVS46x4LGEHQohect6wyoeU/KWz8WxiER4CFd+mC08v5IG65wFRiftmxbrFmKTgfCKFZdlbKKEEOYb4qKD1C233NIsZNaex/oWY8hOlYfCMq7N/hizqMNi4mAHCcmSB+tQkmlef+sWYsFqu1Y7Bn7zU089NUIcwgJAcJ02pGmFBC4Z1cp1hnC9clHzuInPWRBzHnroE+LLG8PYpHXTbjKzbiEuuIqY7ZIqUsYUwvxDiCUfOQzCucUygpXqDNF1y6Jn0++8Yr2o1Rhnwx/6gqbRNtffLLL3pybE3pwdK9e0Miam+9gatocQVgd3tBKm559/vvVVVltcVnGfLmpCbHARnn/++d25557bPHAqNaYZqwthEhqmeRVN45YWFhm1EJsM3izTXWKFTEfupGma7yGEYZCsddttt7UOUlzUjlAcwkVtUSTGXNQXXnhh62EQyzjMAtolS5qn15CsZeM3CwNzakLMZy6TzJtlvhPklDOFsBho9CFW/Oijj3YvvPBCs5KHcFGzRiyG1hfJWyxjwmxx5LoOYZq41ljCjEvXmfjwLJIEp37lsoxNkosuuqiJciziEBYHJU16Ud97772DtnK0QEra4qbW8EMMb0yNPsL8Q7tomHwEmjbLzm4zEWKxG24jMeMIcQiLA7f0XXfd1d1///2tleNQdbNchtVti8WivCmnwIVpQbd4WAgxo5IQzzIXYepCzEUtVlxJW9586v1CWAy0b9y2bVurL9Z1S1mT5K2+qYWSJcxFfdlll7WNfwjrxbXFuyK0KjmLCLvOZqljMxNiyRR86sx5/wOxjEOYfyqLmhCLFxNiXbj6poRYolYJsQTRENZLCTGvy6QQ07ZZMZPsBv8jkieI8Re/+MXW5COlTCEsBsqWiLFyps2bN7ezi999993Wo7pvbPQtkhZLMWPJWwyBENYKrRLuuOqqq1rjmGk379gTMxFisIK5p2+88cYWy5mlfz2E0C/iw5NC7ISmIYTYukKI5aVU8pZ4cQhrpYTY8ZsSAfsIrc5MiLmNTIhqR8dNra448eIQ5h8HHIgXV1nTPffc09phStzqu9GHNcXZsFoQbtq0qa031pps/sNqcB0pT+KOdg25nuhWH2VxMxVi/xPc0txG4jcmS4Q4hMXBEYlKmX784x+3ph8Euk8hLvSd5nlzVCJrxlozy3KTsHhM9sKgWUKrvC1zLcR2qiaCCaHBhw44s+rTGUIYBslbBPipp55qiVuafehP3Tdlzdjwn3XWWU2QrTezju2FxYEHxTXDi6uTluuJXvVxDc1U6stt5H9KUbQdRoruQ1gcxIVZxeLEjz32WDu7+M0339z+bH9Yawy1xBK2vvKVrzRvXB/WTFgMaBOXtB4YrGLa1ddGbuZCbMhitEvlMuKuzlmiISwGXNG//e1vW5ctVjE3tdOa9KLuO3nLWsOqsfE/77zzmqu6DoaIIIe9QYts4LihKzbsfP3Srz7o5eqsfp0y0EwM/5NJpAhhcXj//feba/qnP/1p98wzz7SmHx7rO15sUa1G/YSYJ06f4JRPhr3h2lCP7poRGybGNKtPehFiuw3ia0JwF/kfdkxiCGExYP0SX8clPvnkk81NLaO67yxqlq+1xUIqFHbJJZc0A4AXro960DB/uF64ommTGDHLuG996tVfw0Wtzs//sIkRQlgslDRpffntb3+7Wch9n1tcEGQbf+VM1huGgDUnLuqwK0rdeE/0lJbs5xrpe8PW61Vpp3HmmWe2Rh/uC44nVhzC4uBoRJnTDoYgxGLHXNR9HwxhMZWPYr057bTTduSnxEUdCtpDg2iRa0S2dNUNL7QQSwdn+nMVcRtxB+TElBAWB9avkiaZ1M8991yLGcuoZhn3iYWU6Co/scjq8OekpnjiQkF7aBAtokm0iUYNQa9CbBJUE22Tg+soE2M+sMCyaoY48m5XvJcaYVy4PmRRqyUuIXZABJd1380+WDyEmDV89dVXNyEWO5YoGhd1oD00iBbRJNo0lB4NcjWKFW/cuLHFi/vOTgtrg0XD0uF6HFKMvbb3MlTsMawM35NGH3fffXdL3GIVE+e+LWNYXMX+hMTUiLqNARBoDw2iRUMfFDKYEJsQav3454fwyYfV8fvf/75ZNWMQYu8lQjxuWL+EmEVcQsxdPYQQS8bR9z5CHEBrDNpDg1wTSynEYjdaX1bhvU44PpQwXkoAWcUOgtewYYhF1evr3OT0H5uCMH40+Lj11ltbNjWrWKnTEJu5qtqQwCUpR4lKkkWXDzXDErO0XRYjpkVDJ/ENJsSC4pNCrLwgjBcWjgWUVezIu6GFWDZu352bwtooIX700UebENvQDeHNIMTWm+qclKqN5aSE2CDEtGhoIf7of/kD2+/3RrkGLO5uLeivv/76jh61Q7o+w4fDxVdtSu0k+8p6J8Bvv/129/DDD3d33nlnaxzh54jxfEB8XS+16Ll++j4AxlqjqYdkMmsP3n333TbC4iMEauOlrvyKK65o3hHGoGvStTEE//y737fbQVMHTUwZa/pQy1jjKjJRwnhhieqcpFaUVdwXalFt1MQaZeNu3bq1iXMYP7worhvXzH333dfqi/u8dgqLsIxpGbLXXXddW4yHjg2G/iDENoG+c25pTTy0Qx0Dg1jERe1Q7ZYlctipivuJQYZxUt+XBU3WYcXZZuXa4S3xetXH2KECDhdwjSRZaz7wPfFyWQh5MHhRqlSkrJQ+sN7UYI1ba956660dDUeSc7DYuOaEJbQ9Nbilhy5lK4t4cCE2CWtB9YFIwmHthHFiIRXn8905RFtGqjGrLNSKSyuD+cd//McWZ3SNEOcwX/gubbirty9rxP2+XdTWHPFh7mkiTIC5p4U6wuJChNWTE2GZ89Yv14K1bChGI8Q1qiG7xvEVK85iOz4sXjwX9b1VnN9gVdSFvdZdZllPFRPmznz88cdbXJhF7Nrw+rGG5w/eDd8d4SWErBFiXN2MXDd94Nq03rjODO+LZcx9Do+FxYEHhujqJX3NNdc0lzT3tGuwr2tub4xCiAsTw86Ye5O1UyUOsnPDOPH9+K4sXhYyi5fFzUVPjN1fLcTVsAGzIduyZUvrWfzd7363JWm99tprzTrOQjnf+P7McWgraFG0Bqx187ZWvF55cnjhnBZlYxkDYLFwfTl+1wEgV155Zbtvner7etsToxNiu2QLeLmKxAAtvGGcWKx8RyzXsnTcN7j5/Ew0/R7R9juTw2OG77r+DbflG2+80RKyxIE1grjnnntaXNjjro3Kdg3zi+/f980iPvLII3e0nWSh9Em5qG0MbCpt/F23MQAWi2rkwiJWKut6G4MIY1RCPEmVNrCGZOeGcWMRI5CE8qWXXmqHwrtPVAl1CTLBNYgv4ZU1a8HzO9yCxNe/vf/++7uf/OQnLSZMhJUpsbr9nYjwYlDhByJorpeLWn1nn1QIpTwx7rvWYgAsFizhL33pS606R/ml620sjFKITQQuA0N7PM3iTRaLdxgnZd2wKNSCW8QIrMeIbD1HmAmuQaj9nsElSISfffbZZgU/9NBDzQ3tvjKlqhWOO3pxIHo2VSxSCGNwH2qyYb7X47OmhNiwOHsfrk3XMVzbYT7x3co9sLkTF77hhhtazXBl6o+FEuKP/GFSjCbrxVspl+fNN9/chixZrfEStxk3tajxaLBuJEe46GVUW+Q8boGtSWAhJq6G75bVzFIu8XbfY2FxcX1obaum8+tf/3p31VVXtWYxfVvGrj8eGhtC+Qi33HJLMwJ0BAvziU0VC9ggwo7BtCZZi8YkxO+89367HZUQF1yYLKInnniiTQyD+9MOdYRvN4SwDpwF+7Wvfa37whe+0EpMHFtoY2f0Ca+N7HwJgkIjmzdvbhvFrDnzg2vGhp9X9frrr2+j2ij3nYOwEkqIRxcjRn2YXAvl0mRBiRPGRRnC4lFJeyxkNcboy0VdEFzWksRRZXJyHpA1Z35gCUvGcg3pnHbttde2hEBdHMdkCRflmh7fO/sDJqCgut2xoe7Lz7Pq3hRCGA7hCLkBt912W8sV8DNh7hsW0wknnNCya1np1TkuzA+EWK4BrwrdEPZwFrXHx8woLeJJJOpwM3BNS+wxQeMqCmHxsFiyXGzEiaIErr4pdzjr3MZf/Jh1HKt4PpCTonPWF7/4xXa6kgQt11PfYY6VMmqLuOBKsDP1oQq6+5BN1rF+qCGE1WNjLf9Dtr28kNtvv70lTvWNdYX4ComxpL7yla+0Q2nGbk2FP2IDVwla6ofHLMKTjN4ihg9TJm3Vkbo/hOsqhDA7LJhEmRXKvSiD2s8W174XU6/ndeWoVIOP1LKPF0aa4w03btzYXX755W0jVd0ax8xoG3rsChGuAmw7VS4ju+V0vwlhseD+FYKy0eaWJsTEsO9OSF7L63KTK2uqpjTarqaMcpwoeeOSVjO8YcOGdtQlER67NTw3QuyDrA/TDqdqTU2IGiGExYAYGzbgRFmtsaxXPxPIvhZWr+U15agwBKw5mn1Uc5nkqYwDGyaZ9tzQ+kjX8YZ6GYxdhDE3QlyYDD5cwmt3apeq65LJGkJYHAidQyE01JDxeuaZZ+5oCtP34up1ucmVUDoJjCFgDfIew/DwkjrEQZ2whjBc05XwNw/MnRD7YE3Eao0nRsxVVC7qTIwQFgPWJsvTJpsQczua+xbYPhOniL61hifOpp+b2rpjzUmOyjhw2P/FF1/cXXbZZTtlSc8LcyfERe1QTQSx4jqGL31hQ1gsCKEkHJtvlo8jE7ki+8R7IP7eQ4XG9MEXxw7DIxYsu13jDpu2eav7nlshtjMWNyLEdqnc1HbOdqshhMWCdUP8JGyJFduIE8a+krcIccWmrTusYYdCeE/EOVnUwyBMWc1XtEatLOl5soYxt0JsQhjcV3W4s4nhUO8QwmIhHsv65JbmomYR10EifWKBr8ZC4tdyVNx3G/pH5yx9pFnCcggkbPmOaMM8MbdCDB+2XTF3FUEWK5bVWLGlEMJiQIgJHmvHnHcrNOW2NuV9UK9NeK0xLGIJXHFR9wuvhO//ggsuaE07HPiv/XFdD/PGXAsxfOjc1HZBhh2ySWFyhBAWCzkgNtwWXHFBrknzvi8XdWHdYQAQZIdCOGubAWCE2SNDupKziLC8AdeEa2EemXshLvE1uIzcEmF9YZHkrRAWB1ax8BMXtcXYLTd13y5qJzOJV7OIJYtyU1tr0s9gtvieCa7M6KuvvrrFhk8++eQWrphXEcbcC3Fhh+pL4jqSwKWMyaQwQUIIiwXXJCvYfOeiJMh9Yr0xrDGVxCUslvVmtui05twB1rB6YSLMK8IrOs8sjBCbkCan3XG5h0wKXXAQl1EIiwXr2HxnGUvSKXHsA6/DAjNqE7Bly5YdyaJZb6aLzY7Pmghr2rFp06Y2dM+adxHGwgjxJOWmFitW2mRSKG8KISwOPF+E+OCDD26u4nJb9g0hUL5UDT4qsSxMDxny1UdalrQyJU08fO+LwMIJsUnhCzOcmCKJQhzH/exSQ1gMZCzbaLOSJE3xhpnzRLlPrDden8Vms2/wxFl3wnTgfeDxILwOc/j617/eLGObsL48ILNmIS1iEF1xYjspQpzkrRAWDwtx1fCKH5aLuu/EHWuN13Wr49YQ5ygvKjY5MqNvvPHG1kNaA48S4UUT4n5z/3vAFyWz7ktf+lJzY8hw5LbypYYQFgMVEps3b+7uvvvuJn466w2RuSxOrKHE+eef345tDNOD2J522mnd1772te68887bkai3KCI8ycJZxL4kX5YkLhPTlwduI/GcHA4RwvxTni+xQnOcJSw/xMYbfS3Wtd7wuFV82HuToxLWhu+UEaVrlgxpSVo2PHIBFk2EF9Y1XRNDDEd6u1ZoJoUjzLiyTJjEjENYDMx3iVLmtab/xx57bHusrwXb69gEGLxxBEOc+MUXX9z+G2G12FjpmvWNb3yjCbLvlTgvoldzYYUYNRFZxWLFdqomKouYKKcNZgiLA8+X+c41LGmLKPaZRV3rjc2/NYfb3PCYTUJYGb4zcWBufk07dM+SiFcu6UVkoYUYJoEJWZNDMgdB1pYuJzWFsBjwblUjH9aoRdvQ7KNPCAWLmOWmUqNKmhzTGlaGTRTxVaaklzRvps/UOr6oLLwQgxibIL5IpQYmhjKDmryxjEOYb8zlCjeZ6wTZptuRiehrEbfW2PB7D5XNLS9l69at7b0ZYc+whH1fZ5xxRnfFFVc0MdZDmjW8qJZwsRRCXJSryu7KJIWjE7WmCyHMPwSYFarGWNcl9abmfd+NHwiypCLWHRF+8skn23uLEO8da7Le0URYC8uzzjqreTd4MxedpRNik8OkNEHEirmP7FzdH6LsIYQwPcxjfQN4utQVs6bMeVnUxLEvvJYNP/e4Nrv6GBBi781t+CPWY9+PvtFlCZ9yyiktOWsZRBhLJcQFNwfL2GSpLDzuo5QahLAYmNs23vJBLPLijH0KMeo92BRYb2z4eeCy4d8ZlrA6Yc06Lr/88m7Dhg3tO7OBWhaWUojFcOxWfdGyqcEy5s6qWFMIYb6R+8FNzbKShQtzvw9B9ho2+ITYrRJKCVu6bhFilvuyu6lr/fXdEGF9pImwn5dJhLGUQlyUZWxymjC1g45lHML8wwVMjImgjbd5ztIyz/uirGKCU143QsxFvewbfmVmp556ahNhZUq6Zh1++OHtu1o2llqIxR9MEF+8YdLYtdYBEXatIYT5w/wlwtzB5rafJf5U3NFc78sy9vo2AzxuqjWUTW7btm1HVvWyUR7J448/vvWQriMNxYU9vowstRAXJotYcWVWspRN4ljGIcw35rYNNWtUgmYJMddnn5YxWOjKJ72X5557bmn7GLCEJWbJjGYJa125rJZwESH+AyalSWqSmKSEmFUs2xHLHssJYV4xd8WJX3vttZZFrS5VJnPN9T7xuo7ys648+uijO8oml2V9qZi5GDDxlR3tWMNltoSLCPEumJyaxttJc6HYxdrBhhDmG2Eo1nE1jjDP+4YYVVJo3eeuXgZYvbLXuaEd4lD9o5ddhBEhnoBlLJlDOj1BJsRE+OWXX97+GyGEeYUIO4hB20vNIsRt+4TwWlPc8sAJfzm6cVk2+pqrsISvvPLK7rrrrmuiXGWky06EeBdcFIbJwpVk58qd4mcurripQ5hfZCxL2iqvF2usckP6xGvKnBYCI8gyqN0uGtZNljARLle0TRCPhM++1ttlJ0K8BwivySqpwA6WpcyFpAYwmdQhzCfEjhvYnAYhELMVL+4TIswa1+hDnFjJpE3+IiZvWUtZvixhIuwgB0dUsoSJdET4AyLEe8DF4QIyYd0XW2IJu+/isZONIIcwX5jDcj7MYaVDxIAQm98eM+f7oNaX6rDFEnZcYlVpLILXTWivYsIadWhdyRImwjYiEeCdiRB/CCYn97RsS1axCUuEZWDazYYQ5g8irF8A97QsankhQ7ioy/NGkOWhVD/qRdjk2+Ro1uEYQ4lZ1157bXNHJya8ZyLEH4ILhlVskhJlE9du1USpXXXtakMI84H5W/2fzWmbbIJYLuq+hMIaQvxZxFzU1hNjnl3U/n94GVjC6oTFhVnCSpZqHQ27EyFeASamyeokFxPXDlq8ST3gshblh7AImL/EwZGJsqlZqX2JRW304XVt8nXcYhnPKzY0hFeJkuxohzhwUZcl3NcmZ96IEK+Qqi8myHbOXEgSP+yu7WhjGYcwX9QcNqeFnyRQuc9y6wOiRPRro+/92NyLFxPleepFTWgJruYcYsIGQZYt7fOMCH84EeJVYgcrVuzCUwtoIk0mWoQQ5gNiZwNdm+zKZub56hNriPXE+2ENqyu2uZdNPS+oMHFoAwuYO1ps2GN9x93nlQjxKqlJa+KYtHZ5SpuqBrB2sSZVCGG8sEDNV3PYfLXJJh5c1Ogri9rrsBq9h+q0JWZsgz92rIW8Caeffnp36aWX7rCEjzvuuIjwKogQr5HaxboQTVzuahnVJpAJlfKmEOYDgsz6dGsuywGpDXffEGQCtmXLlu6FF17Y/uh4UY5UjTokZxFknQkjwqsjQrxG7J5N1Gr84X4V5RPiihnHMg5h3Jir5i7rmJfLptrgou4zrmlN8fpETDmT9pcYY/4JI8SGRb9o7SqJ8WmnndZKlCLCqydCPAXsniVbEGWTl/iyju2wU28cwvygfMjcVYKj5AZ9inG5yb0P64qQ1xizqB1j6AhDNcLOFHa2sPXPew6rJ0K8TsR37ADtoGUNEmIxHjtsO1mTGrGMQxg3RM+hELxahIablTBWidGs8VrWE8PGXlKoODEXteds7IfC6wvHWeu8L+L7la98pcWFZUpz6UeE106EeIqYQC5G3bjESVy4LGIiTJxDCOOHCJq/bs1n9/ukBNnrOxTCKC/bUBt674U7+vzzz+++/OUvt5jwhg0b2jGG1ru+NiuLSoR4ShDd2sW6OI8++ujmXlKKQIRzpnEI44fVaS4T4Ere4nYFgewDImwd4WUjwkojiTBrvW+ruCxhOTDezxe/+MXu3/7bf9uyoyVqcUdHhNdPhHgG1MVLmKX2m1Tue4zba0gXUwhh35ijNtKSpyQloRpT9AXrl7vc2kGEX3zxxV6rMWwIeAMYFYT3hhtuaElZekhXPNiaFtZPhHjKlAibtCxj8RMTyeNE+PXXX5+rjjkhLBvEThkiLxYhUhVhPhPkPoXHmuF1vT4Rfuihh3rNoCa0RNgaRoT/+q//ujvzzDPbZyJWHBGeHhHiGWACGXaU5bZhFZtUbj1GlMdYlhBC+GNyJcGR52He6kdtThMg83vW1DpCELmny22u6ccsN/PWKW5njTkkY+kZLR7MRS9ObP3q4/9/mYgQzxgXrNiK+jotMcWcxIxfffXVuWphF8KyUQlSP/vZz9r8lUXNu9WXEHkNwl/Wp/XD+1FjzG0+K2w6CK92lY4vFBdmGYsTR4RnQ4R4xrhoXbwmk0klw9AO167ThW2yc4W5Tew4hHFhbrKIlSYSQnO3zwQl60dZ4NYO7nIbAxYxj9o01wwGg/iv0iSW8MaNG5tbmghXjktEeDZEiHvExWwSs4o1CyDEXE7c1JIyEjsOYVwQOvOSCIJYcVHbWPcF8bN22AgQYolbvGqTPe6ngZwWFrDyJO0quab1RbD5CLMlQtwj5Waq9nDl5pl0d5n4iR2HMA7KU2XuVha1rls1Z1mJfVBeNZt2GwNhLZbxesJbBNYGw/8Py5cFLB7MImYFp0lHf0SIB8DkrUlgF1oXvAkmBmSnG0IYDzbHanoJsaxhoSXzlyD3ic06rxrL+JlnnlnX8atiwTKyzz777O7GG2/srr/++nZ/Mh4c+iFCPACE2EXOMub6MSEIcVnFduHGLBMyQggrhwuY9UmAzVO3ddiLOWv0gde2XhDgN954o7mobeBXE9by723+HdpPeLmhr7jiinaAQ/U9iAj3S4R4YIiyXTVBNgnstk0ELiiupxDCeCDI5qVNNCFjIVdJUx8QfJt2FrrXBUt9NV40pUkO8Se+MqIJcXXJshb19f8S/kiEeEBMKhe93bWYMTE2Geyy7b6JsYlRO+5kVYcwLOal05AkTtWJQ2K3fbmoy5tmPbBO2BhoElTnoO9pjSDYxNumgRWvNGnTpk1tEGEbirKCI8LDECEeESaXCS0zk2V8zDHHtAmihMIEswiYbCGEYSHAxM0wV/3cJwSzhPgXv/hFyy1RZrVrOKsE2/sjwI4tZAlLzCLADAD/D2FYIsQjws7VpDE5ZDISYhOOG4oYm2youuMQwjCYq0SQN0tykzlL9PqyKG3Yiau1gTXMeyZu7D68F5a6hDI10N6jPtEO8XeCkuYkyYoeDxHikWJCmyQsYpnVJjrXEgE24VLiFMJwVDIlIRZSsoEmjn7uE0laXMrWgy1btuzIKyHCXOcSsEqAlSU5Z5kAe79xQ4+HCPEIsZslwiaLBK6TTjqpuauJMve0mFCEOIThYA2zPomgDbL5KW5cLmpzuA+sE17XeqCcaevWre09eR9EWBz46quvboc2WEesJxHh8REhHjkmdI2a7Dr7iEuZTHbmqy1fCCFMB/PS5li4iKVZ87IymvvA6xFimwPWuZIk7me9oi+66KLuuOOOa++rkrH62iSElVNC/JE/LOgJOo4YX49Rx7Pddddd3fe///3uscceay6pig2FEPqjNskE7z/+x//YGmOwkKslZl9s27ate+KJJ5prmnvce5CMpSyp3mMYL++890GHtFjEI6cmk2FnKx5l9yupS0mCiW9HbHceQugPG2TuXu5gc9NcNDf7xHsoN7n1gHXuPah3jgiPn7im5wwuL4kYXE0SL2RWm3Qmm92wnXEIoV/MS+5pODKRJdonFRe2LhhCWBHh+SFCPGdMWsUEWbKGWztyMeTaCXvMLjltMkOYPeakPA0xWHOQEHqsryxqr2UzYF1wa3gszAcR4jnHxCPAagUdrVjHK2oAou5YsX8IYbbUfCPGRFiFg3nYt4s6zCcR4jnHDpxVbOdNkA0uKQuBWFXdwg45zUBCmD7mFBF2a06aZwRZDgdYqCHsjQjxglCuKYIsRiR2rMzJLaGuEgu79vSsDmE2EGMNd1Q2iBXLXDYvhYpC2BsR4gWBEJd1zAKWuME61pHLIkCgPe4+d7a6wwhyCNOlXNQqGISLKl+jWmCGsCcixAuKSU9wia9yhlNOOWVHqRP3maPTNIl3P67qEKaLTTEBtuElwnI3IsRhb0SIFxSTnnUsXmwh4CZjIbOUPcdNzUqWUFJHuJUgR5hDWD/mEeuYZVzlTDbHEeSwKxHiJUKsihgrrxC70hTeIkGs7dyVOnGtxWUdwvoRLzanbISr2YeGG0ncCrsSIV4iuMosCNzTRFgDeAsDi7iaEdSO3W6+HgshrA7zR+iHRSw8RHzd2vjWHItlHIoI8ZJSiV0sZIKsMbzBWmYhW0TSvzqE9cPb9NZbb7VNsEoG887m1xwMARHiJcQCYIdeDQecdyyZxOHh6o49r9xJGYYFo3bwcVmHsDpYxuaS9rPml6TJavZhXoWAEuKcvrTEEFjxrPfee6/1qn7ttde6F198sXv55Ze7N998sz323HPPdc8//3z7vRDCyrCp5Y42vvrVr3Zf+9rXWm2/Wv9KkgyhTl+KEIcdlCiziJ9++unuqaee6m677bbulltu2VHyBLe5bELYmYr/GtzQZ5xxRhtXXHFFG8oIdd3yXAiIEIfdYCFrSPCb3/ymxbYM1rDxxhtvNDfb66+/3iznd999t/1uErtC6Fp+BetXuEc8uLrbcUtLkDS4ppUOJns6FBHisEdcDjVKmA2Hjz/88MPdAw880N1///1NjMXAPBfCsqNUacOGDd3555/fbdy4sd2yfj1OeI2ylkMoIsRhRRBjlwhLeMuWLS2G/MILLzQL+ec///mOoWPXO++808Q5hEVFopVBYLma6wxg1rAa/arT18iDlWyEsDcixGHFuESUYhiElltaMtfWrVubKD/55JPds88+273yyivt8RAWlepKd9JJJzWr98wzz9xReVCiLBnLYP2mVCl8GBHisCYkdBFk1q8zj1nGr776ahNht1zWTqAxWMluc4mFeUUzDoMFTGiV/Rlq70877bR2W5YxgdY8J4SVEiEOa8LlYpQgy6bWzo8wE2VWsozrGjKvc4mFeYRFS2QlYMl+Puuss5rw6t+uAQ5xJtKsX5nQ4sCxgMNqiBCHqSJpS9mTeLE4sqEG2VASxaVNrHXtkpVNwJNxHcYEMeVaNmQ46z7H5SwD+uSTT97pJDPPl/iGsFYixGGqSOoqC5noEl+ua4OVbCiDEktWBsVtzZIOYSwQXjHf008/fUfJUVnEnqvyozrbm/WbLOiwHiLEYaa4rMptLW5MiFnHhFgGtq5dLGTWsaFJvttKCgthVhBSLmUxXaPEVeyX+5kbuoSY+9mIyznMgghxmDlczwYLedI1XYlcMqwrrlyJXtzbfi+EWeGwkyox0nRDzJe72SDGhLcsYAJdGdAhTJsIcRgM1m+VQBHgl156qbmtq8e1ODNrupqJuC85zMjlGlYC4SxLt5Kp6pb4yngW81X3S5C5n2U+s3xj/Ya+iBCHwSCoBLYEedJK5rLWWpMgG+LJrGa/Y/i3IewLSVQE15DhzNp1S2xZxFVy5Fxu1i9XNeEm4LF+Q19EiMNocAlK9mL5EmMWMevYqAzsEuayjrm8y0qun8PyQXAny4cqiYolXIculCBXD2jiS3j9mxCGJEIcRoXLkKBK7mIplwVcTUHcTt6XjV0HU7CiWdZh+VBqJN4rzlvNNli4xLYynh3Mb1RJEsuXCMcFHYYmQhzmApYua1k5FLHlptbzWly5+l6LLxNjl3L1xt7T/TA/lHuYWJa7ePJ+DRbuRRdd1J199tkt1qvuV99nrmh9nmVFhzBWIsRhLigRrcStiinLri43NhF233OGrGvD7xhlXUeM5wMCy91ssHhZtzUmrVtDnJc1THzreY8TYFZv3M9hzESIw1xSl2vdqjnmzia0rGWjzkyu/tfVUCT1yfMBy1cMl6CycsvSFecluga3s6QrvzdpIReT90MYKxHisBCwcqujV1nCZQGLJxusZkPsuWLQ6prrtpqKGFzgHg/Th8BKqBKjrYYabkt03XqOS5l1yxpW0yvuW60ny+oV6zVYzSHMKxHisDC4hA2iPDkqvlwNRbipS5irTMqtxK96XLmU2zB9ZDSXu5k1a4jlcitLqvJziS+XMwEu9zIBJ+S7jli+YZ6JEIeloeLLZQGX5VxjMrZMhMWb69+wtGuwpvf2s4zvZYIAVrmQUqEa1UTDbcV53Z8cxLasXNZtWb9ud7WQS3BDWEQixGFpmLSWWcmTo2qQy71d2dklzJXsVYlf9XO5vcsNzq29TBBhlir38qSQlkVrlAu5fna/RNYg2P5OCXrVAJf16zYWb1hkIsQhbMcUMAhyWbjlzibMJc5135i0qA1CXGJfgk/cjRJ8j09uCjzmebe1Iahbw++AGNW/rd9dybQtt65/P2nBlpVZ4leu3xr1vOG5+r3J5zxOSAnxZMx28n7FgOtxsV8WcVnP/l4Iy0yEOIQJTAOjRLLEsISvBLLuE1Cua+5pIky8/Vzia5R4e97v1d+ofzuZHFa/U7f19wgo4at/63nDzx+Gf1eWp3/vZyJIHLmLCSthLFdwuY3LnVwiXmLqOb9f/7bczzX8XP9uUrjrvuF9TIq59xTCMvOBEHfd/wdN2L0LEm2nhQAAAABJRU5ErkJggg==;" vertex="1" parent="1">
          <mxGeometry x="830" y="360" width="40" height="40" as="geometry" />
        </mxCell>
        <mxCell id="MonN4UWlxKLjkT3AbChz-31" value="Api Gateway" style="sketch=0;points=[[0,0,0],[0.25,0,0],[0.5,0,0],[0.75,0,0],[1,0,0],[0,1,0],[0.25,1,0],[0.5,1,0],[0.75,1,0],[1,1,0],[0,0.25,0],[0,0.5,0],[0,0.75,0],[1,0.25,0],[1,0.5,0],[1,0.75,0]];outlineConnect=0;fontColor=#232F3E;fillColor=#8C4FFF;strokeColor=#ffffff;dashed=0;verticalLabelPosition=bottom;verticalAlign=top;align=center;html=1;fontSize=12;fontStyle=0;aspect=fixed;shape=mxgraph.aws4.resourceIcon;resIcon=mxgraph.aws4.api_gateway;" vertex="1" parent="1">
          <mxGeometry x="1020" y="351" width="78" height="78" as="geometry" />
        </mxCell>
        <mxCell id="MonN4UWlxKLjkT3AbChz-40" value="" style="edgeStyle=orthogonalEdgeStyle;rounded=0;orthogonalLoop=1;jettySize=auto;html=1;" edge="1" parent="1" source="MonN4UWlxKLjkT3AbChz-35" target="MonN4UWlxKLjkT3AbChz-39">
          <mxGeometry relative="1" as="geometry" />
        </mxCell>
        <mxCell id="MonN4UWlxKLjkT3AbChz-42" value="" style="edgeStyle=orthogonalEdgeStyle;rounded=0;orthogonalLoop=1;jettySize=auto;html=1;" edge="1" parent="1" source="MonN4UWlxKLjkT3AbChz-35" target="MonN4UWlxKLjkT3AbChz-41">
          <mxGeometry relative="1" as="geometry" />
        </mxCell>
        <mxCell id="MonN4UWlxKLjkT3AbChz-35" value="AWS Lambda" style="sketch=0;points=[[0,0,0],[0.25,0,0],[0.5,0,0],[0.75,0,0],[1,0,0],[0,1,0],[0.25,1,0],[0.5,1,0],[0.75,1,0],[1,1,0],[0,0.25,0],[0,0.5,0],[0,0.75,0],[1,0.25,0],[1,0.5,0],[1,0.75,0]];outlineConnect=0;fontColor=#232F3E;fillColor=#ED7100;strokeColor=#ffffff;dashed=0;verticalLabelPosition=bottom;verticalAlign=top;align=center;html=1;fontSize=12;fontStyle=0;aspect=fixed;shape=mxgraph.aws4.resourceIcon;resIcon=mxgraph.aws4.lambda;" vertex="1" parent="1">
          <mxGeometry x="1210" y="351" width="78" height="78" as="geometry" />
        </mxCell>
        <mxCell id="MonN4UWlxKLjkT3AbChz-37" value="" style="endArrow=classic;startArrow=classic;html=1;rounded=0;exitX=1;exitY=0.5;exitDx=0;exitDy=0;entryX=0;entryY=0.5;entryDx=0;entryDy=0;entryPerimeter=0;" edge="1" parent="1" source="MonN4UWlxKLjkT3AbChz-26" target="MonN4UWlxKLjkT3AbChz-31">
          <mxGeometry width="50" height="50" relative="1" as="geometry">
            <mxPoint x="1170" y="440" as="sourcePoint" />
            <mxPoint x="1000" y="390" as="targetPoint" />
          </mxGeometry>
        </mxCell>
        <mxCell id="MonN4UWlxKLjkT3AbChz-38" value="" style="endArrow=classic;startArrow=classic;html=1;rounded=0;exitX=1;exitY=0.5;exitDx=0;exitDy=0;exitPerimeter=0;" edge="1" parent="1" source="MonN4UWlxKLjkT3AbChz-31" target="MonN4UWlxKLjkT3AbChz-35">
          <mxGeometry width="50" height="50" relative="1" as="geometry">
            <mxPoint x="1098" y="438" as="sourcePoint" />
            <mxPoint x="1218" y="438" as="targetPoint" />
          </mxGeometry>
        </mxCell>
        <mxCell id="MonN4UWlxKLjkT3AbChz-39" value="Dynamodb" style="sketch=0;points=[[0,0,0],[0.25,0,0],[0.5,0,0],[0.75,0,0],[1,0,0],[0,1,0],[0.25,1,0],[0.5,1,0],[0.75,1,0],[1,1,0],[0,0.25,0],[0,0.5,0],[0,0.75,0],[1,0.25,0],[1,0.5,0],[1,0.75,0]];outlineConnect=0;fontColor=#232F3E;fillColor=#C925D1;strokeColor=#ffffff;dashed=0;verticalLabelPosition=bottom;verticalAlign=top;align=center;html=1;fontSize=12;fontStyle=0;aspect=fixed;shape=mxgraph.aws4.resourceIcon;resIcon=mxgraph.aws4.dynamodb;" vertex="1" parent="1">
          <mxGeometry x="1210" y="210" width="78" height="78" as="geometry" />
        </mxCell>
        <mxCell id="MonN4UWlxKLjkT3AbChz-41" value="SES" style="outlineConnect=0;dashed=0;verticalLabelPosition=bottom;verticalAlign=top;align=center;html=1;shape=mxgraph.aws3.ses;fillColor=#D9A741;gradientColor=none;" vertex="1" parent="1">
          <mxGeometry x="1370" y="343.5" width="79.5" height="93" as="geometry" />
        </mxCell>
        <mxCell id="MonN4UWlxKLjkT3AbChz-45" value="AWS Cloud" style="sketch=0;outlineConnect=0;gradientColor=none;html=1;whiteSpace=wrap;fontSize=12;fontStyle=0;shape=mxgraph.aws4.group;grIcon=mxgraph.aws4.group_aws_cloud;strokeColor=#AAB7B8;fillColor=none;verticalAlign=top;align=left;spacingLeft=30;fontColor=#AAB7B8;dashed=0;" vertex="1" parent="1">
          <mxGeometry x="358.5" y="730" width="1211.5" height="520" as="geometry" />
        </mxCell>
        <mxCell id="MonN4UWlxKLjkT3AbChz-50" value="" style="edgeStyle=orthogonalEdgeStyle;rounded=0;orthogonalLoop=1;jettySize=auto;html=1;" edge="1" parent="1" source="MonN4UWlxKLjkT3AbChz-46" target="MonN4UWlxKLjkT3AbChz-45">
          <mxGeometry relative="1" as="geometry">
            <Array as="points">
              <mxPoint x="929" y="734" />
              <mxPoint x="900" y="734" />
            </Array>
          </mxGeometry>
        </mxCell>
        <mxCell id="MonN4UWlxKLjkT3AbChz-46" value="Peering Connection" style="sketch=0;outlineConnect=0;fontColor=#232F3E;gradientColor=none;fillColor=#8C4FFF;strokeColor=none;dashed=0;verticalLabelPosition=bottom;verticalAlign=top;align=center;html=1;fontSize=12;fontStyle=0;aspect=fixed;pointerEvents=1;shape=mxgraph.aws4.peering;" vertex="1" parent="1">
          <mxGeometry x="889.5" y="584" width="78" height="78" as="geometry" />
        </mxCell>
        <mxCell id="MonN4UWlxKLjkT3AbChz-49" value="" style="endArrow=classic;startArrow=classic;html=1;rounded=0;" edge="1" parent="1" source="MonN4UWlxKLjkT3AbChz-1" target="MonN4UWlxKLjkT3AbChz-46">
          <mxGeometry width="50" height="50" relative="1" as="geometry">
            <mxPoint x="752" y="598.33" as="sourcePoint" />
            <mxPoint x="590" y="598.33" as="targetPoint" />
          </mxGeometry>
        </mxCell>
      </root>
    </mxGraphModel>
  </diagram>
</mxfile>
